<svg viewBox="0 0 600 400" xmlns="http://www.w3.org/2000/svg">
<g transform="translate(72, 364)">
<g>
<g>
<path d="M0,-170 L0,-170 L0.96,-171.69997 L1.92,-173.39978 L2.88,-175.09923 L3.84,-176.79819 L4.8,-178.49646 L5.76,-180.19388 L6.72,-181.89029 L7.68,-183.5855 L8.64,-185.27936 L9.6,-186.97168 L10.56,-188.66231 L11.52,-190.35107 L12.48,-192.03781 L13.44,-193.72234 L14.4,-195.40448 L15.36,-197.08409 L16.32,-198.761 L17.28,-200.43503 L18.24,-202.10602 L19.2,-203.77379 L20.16,-205.43819 L21.12,-207.09903 L22.08,-208.75618 L23.04,-210.40944 L24,-212.05867 L24.96,-213.70369 L25.92,-215.34435 L26.88,-216.98045 L27.84,-218.61188 L28.8,-220.23843 L29.76,-221.85997 L30.72,-223.47632 L31.68,-225.08731 L32.64,-226.69281 L33.6,-228.29263 L34.56,-229.88663 L35.52,-231.47462 L36.48,-233.05647 L37.44,-234.63203 L38.4,-236.20111 L39.36,-237.76358 L40.32,-239.31927 L41.28,-240.86804 L42.24,-242.40971 L43.2,-243.94414 L44.16,-245.47118 L45.12,-246.99066 L46.08,-248.50246 L47.04,-250.0064 L48,-251.50233 L48.96,-252.99013 L49.92,-254.46962 L50.88,-255.94067 L51.84,-257.4031 L52.8,-258.85684 L53.76,-260.30167 L54.72,-261.73746 L55.68,-263.16406 L56.64,-264.58136 L57.6,-265.98923 L58.56,-267.38748 L59.52,-268.77597 L60.48,-270.1546 L61.44,-271.52322 L62.4,-272.88168 L63.36,-274.22986 L64.32,-275.56763 L65.28,-276.8948 L66.24,-278.21133 L67.2,-279.517 L68.16,-280.81174 L69.12,-282.0954 L70.08,-283.36783 L71.04,-284.62894 L72,-285.8786 L72.96,-287.11664 L73.92,-288.343 L74.88,-289.5575 L75.84,-290.76007 L76.8,-291.95053 L77.76,-293.1288 L78.72,-294.2948 L79.68,-295.44833 L80.64,-296.58932 L81.6,-297.71768 L82.56,-298.83322 L83.52,-299.9359 L84.48,-301.0256 L85.44,-302.1022 L86.4,-303.1656 L87.36,-304.21564 L88.32,-305.2523 L89.28,-306.2754 L90.24,-307.28488 L91.2,-308.28064 L92.16,-309.26257 L93.12,-310.23056 L94.08,-311.18454 L95.04,-312.12442 L96,-313.05008 L96.96,-313.96143 L97.92,-314.85837 L98.88,-315.7408 L99.84,-316.6087 L100.8,-317.46194 L101.76,-318.30045 L102.72,-319.12408 L103.68,-319.93283 L104.64,-320.72656 L105.6,-321.50525 L106.56,-322.26877 L107.52,-323.0171 L108.48,-323.75006 L109.44,-324.46768 L110.4,-325.16986 L111.36,-325.85654 L112.32,-326.5276 L113.28,-327.183 L114.24,-327.82272 L115.2,-328.44666 L116.16,-329.05472 L117.12,-329.64688 L118.08,-330.22308 L119.04,-330.7833 L120,-331.3274 L120.96,-331.85535 L121.92,-332.36716 L122.88,-332.8627 L123.84,-333.34195 L124.8,-333.8049 L125.76,-334.25143 L126.72,-334.68158 L127.68,-335.0952 L128.64,-335.49237 L129.6,-335.873 L130.56,-336.23697 L131.52,-336.58438 L132.48,-336.9151 L133.44,-337.22913 L134.4,-337.52646 L135.36,-337.807 L136.32,-338.0708 L137.28,-338.31778 L138.24,-338.5479 L139.2,-338.7612 L140.16,-338.9576 L141.12,-339.13715 L142.08,-339.29974 L143.04,-339.4454 L144,-339.57416 L144.96,-339.6859 L145.92,-339.78073 L146.88,-339.85855 L147.84,-339.9194 L148.8,-339.96323 L149.76,-339.99008 L150.72,-339.99994 L151.68,-339.9928 L152.64,-339.96866 L153.6,-339.92752 L154.56,-339.8694 L155.52,-339.79425 L156.48,-339.70215 L157.44,-339.59308 L158.4,-339.46704 L159.36,-339.32407 L160.32,-339.16418 L161.28,-338.98734 L162.24,-338.7936 L163.2,-338.583 L164.16,-338.35556 L165.12,-338.11127 L166.08,-337.85016 L167.04,-337.57227 L168,-337.27762 L168.96,-336.96625 L169.92,-336.63815 L170.88,-336.29343 L171.84,-335.93207 L172.8,-335.5541 L173.76,-335.15958 L174.72,-334.74857 L175.68,-334.32104 L176.64,-333.8771 L177.6,-333.41678 L178.56,-332.94012 L179.52,-332.44714 L180.48,-331.93796 L181.44,-331.41257 L182.4,-330.871 L183.36,-330.3134 L184.32,-329.73972 L185.28,-329.1501 L186.24,-328.54456 L187.2,-327.92316 L188.16,-327.28595 L189.12,-326.63303 L190.08,-325.96445 L191.04,-325.28027 L192,-324.58057 L192.96,-323.8654 L193.92,-323.13486 L194.88,-322.38898 L195.84,-321.62787 L196.8,-320.8516 L197.76,-320.06024 L198.72,-319.25388 L199.68,-318.43262 L200.64,-317.59647 L201.6,-316.7456 L202.56,-315.88004 L203.52,-314.99988 L204.48,-314.10522 L205.44,-313.19617 L206.4,-312.2728 L207.36,-311.33517 L208.32,-310.38345 L209.28,-309.41766 L210.24,-308.43796 L211.2,-307.4444 L212.16,-306.43707 L213.12,-305.41614 L214.08,-304.38165 L215.04,-303.3337 L216,-302.27243 L216.96,-301.19797 L217.92,-300.11035 L218.88,-299.00974 L219.84,-297.8962 L220.8,-296.7699 L221.76,-295.6309 L222.72,-294.47934 L223.68,-293.31534 L224.64,-292.139 L225.6,-290.95047 L226.56,-289.74982 L227.52,-288.5372 L228.48,-287.31274 L229.44,-286.07654 L230.4,-284.82874 L231.36,-283.56946 L232.32,-282.2988 L233.28,-281.01694 L234.24,-279.72394 L235.2,-278.42 L236.16,-277.1052 L237.12,-275.7797 L238.08,-274.44363 L239.04,-273.0971 L240,-271.74026 L240.96,-270.37326 L241.92,-268.99622 L242.88,-267.60925 L243.84,-266.21255 L244.8,-264.80624 L245.76,-263.3904 L246.72,-261.96527 L247.68,-260.53094 L248.64,-259.08752 L249.6,-257.63522 L250.56,-256.17416 L251.52,-254.70448 L252.48,-253.22632 L253.44,-251.73984 L254.4,-250.2452 L255.36,-248.74251 L256.32,-247.23196 L257.28,-245.71368 L258.24,-244.18785 L259.2,-242.65459 L260.16,-241.11404 L261.12,-239.5664 L262.08,-238.01181 L263.04,-236.45041 L264,-234.88237 L264.96,-233.30783 L265.92,-231.72697 L266.88,-230.13994 L267.84,-228.54689 L268.8,-226.94798 L269.76,-225.34338 L270.72,-223.73326 L271.68,-222.11775 L272.64,-220.49702 L273.6,-218.87126 L274.56,-217.2406 L275.52,-215.60522 L276.48,-213.96529 L277.44,-212.32095 L278.4,-210.67238 L279.36,-209.01974 L280.32,-207.36322 L281.28,-205.70294 L282.24,-204.0391 L283.2,-202.37186 L284.16,-200.70137 L285.12,-199.02782 L286.08,-197.35135 L287.04,-195.67216 L288,-193.9904 L288.96,-192.30624 L289.92,-190.61986 L290.88,-188.9314 L291.84,-187.24106 L292.8,-185.549 L293.76,-183.85536 L294.72,-182.16035 L295.68,-180.46413 L296.64,-178.76686 L297.6,-177.06871 L298.56,-175.36986 L299.52,-173.67047 L300.48,-171.9707 L301.44,-170.27075 L302.4,-168.57077 L303.36,-166.87093 L304.32,-165.1714 L305.28,-163.47235 L306.24,-161.77397 L307.2,-160.0764 L308.16,-158.37982 L309.12,-156.6844 L310.08,-154.99033 L311.04,-153.29774 L312,-151.60683 L312.96,-149.91776 L313.92,-148.2307 L314.88,-146.5458 L315.84,-144.86327 L316.8,-143.18323 L317.76,-141.50589 L318.72,-139.83139 L319.68,-138.15991 L320.64,-136.49161 L321.6,-134.82666 L322.56,-133.16524 L323.52,-131.50749 L324.48,-129.85359 L325.44,-128.20372 L326.4,-126.558014 L327.36,-124.91666 L328.32,-123.27981 L329.28,-121.64763 L330.24,-120.02029 L331.2,-118.39794 L332.16,-116.78076 L333.12,-115.1689 L334.08,-113.562515 L335.04,-111.961784 L336,-110.36685 L336.96,-108.777885 L337.92,-107.19504 L338.88,-105.61847 L339.84,-104.04835 L340.8,-102.48481 L341.76,-100.92803 L342.72,-99.37816 L343.68,-97.83534 L344.64,-96.29975 L345.6,-94.77152 L346.56,-93.250824 L347.52,-91.73779 L348.48,-90.23259 L349.44,-88.73537 L350.4,-87.24627 L351.36,-85.76545 L352.32,-84.293045 L353.28,-82.829216 L354.24,-81.37411 L355.2,-79.92786 L356.16,-78.490616 L357.12,-77.06252 L358.08,-75.64372 L359.04,-74.23436 L360,-72.83458 L360.96,-71.4445 L361.92,-70.06429 L362.88,-68.69407 L363.84,-67.333984 L364.8,-65.98416 L365.76,-64.64474 L366.72,-63.31585 L367.68,-61.99763 L368.64,-60.690212 L369.6,-59.393726 L370.56,-58.1083 L371.52,-56.83406 L372.48,-55.57114 L373.44,-54.319664 L374.4,-53.079754 L375.36,-51.851536 L376.32,-50.63513 L377.28,-49.430664 L378.24,-48.238255 L379.2,-47.058018 L380.16,-45.89008 L381.12,-44.73455 L382.08,-43.591545 L383.04,-42.461185 L384,-41.343575 L384.96,-40.238834 L385.92,-39.147064 L386.88,-38.068386 L387.84,-37.002895 L388.8,-35.950706 L389.76,-34.911922 L390.72,-33.886646 L391.68,-32.87498 L392.64,-31.877031 L393.6,-30.89289 L394.56,-29.922663 L395.52,-28.96644 L396.48,-28.024323 L397.44,-27.096401 L398.4,-26.182772 L399.36,-25.283522 L400.32,-24.398745 L401.28,-23.528526 L402.24,-22.672956 L403.2,-21.832119 L404.16,-21.006098 L405.12,-20.194975 L406.08,-19.398834 L407.04,-18.617752 L408,-17.851809 L408.96,-17.10108 L409.92,-16.36564 L410.88,-15.645566 L411.84,-14.940926 L412.8,-14.251791 L413.76,-13.578231 L414.72,-12.920313 L415.68,-12.278103 L416.64,-11.651665 L417.6,-11.041061 L418.56,-10.446354 L419.52,-9.867602 L420.48,-9.304863 L421.44,-8.758193 L422.4,-8.227648 L423.36,-7.713279 L424.32,-7.215139 L425.28,-6.733277 L426.24,-6.2677417 L427.2,-5.8185797 L428.16,-5.3858356 L429.12,-4.969553 L430.08,-4.5697727 L431.04,-4.186536 L432,-3.81988 L432.96,-3.469842 L433.92,-3.136457 L434.88,-2.8197582 L435.84,-2.519777 L436.8,-2.2365441 L437.76,-1.9700872 L438.72,-1.7204331 L439.68,-1.4876069 L440.64,-1.2716318 L441.6,-1.0725294 L442.56,-0.8903196 L443.52,-0.7250206 L444.48,-0.57664895 L445.44,-0.44521952 L446.4,-0.3307454 L447.36,-0.2332381 L448.32,-0.15270731 L449.28,-0.08916112 L450.24,-0.04260587 L451.2,-0.013046214 L452.16,-0.00048511408 L453.12,-0.0049238238 L454.08,-0.0263619 L455.04,-0.0647972 L456,-0.12022588 L456.96,-0.19264239 L457.92,-0.2820395 L458.88,-0.38840824 L459.84,-0.51173806 L460.8,-0.6520165 L461.76,-0.8092296 L462.72,-0.98336166 L463.68,-1.1743952 L464.64,-1.3823112 L465.6,-1.6070889 L466.56,-1.8487056 L467.52,-2.1071374 L468.48,-2.3823583 L469.44,-2.674341 L470.4,-2.9830558 L471.36,-3.3084724 L472.32,-3.650558 L473.28,-4.0092783 L474.24,-4.3845973 L475.2,-4.7764783 L476.16,-5.184881 L477.12,-5.6097655 L478.08,-6.0510883 L479.04,-6.508806" fill="none" stroke="red" stroke-linejoin="round" stroke-width="2"/>
</g>
</g>
<g>
<g>
<path d="M0,-173.23651 L0,-173.23651 L0.96,-174.64337 L1.92,-176.06065 L2.88,-177.48816 L3.84,-178.92567 L4.8,-180.37299 L5.76,-181.82986 L6.72,-183.29608 L7.68,-184.7714 L8.64,-186.25552 L9.6,-187.74826 L10.56,-189.24928 L11.52,-190.75833 L12.48,-192.27513 L13.44,-193.79938 L14.4,-195.33075 L15.36,-196.86896 L16.32,-198.41368 L17.28,-199.96458 L18.24,-201.52135 L19.2,-203.0836 L20.16,-204.65103 L21.12,-206.22325 L22.08,-207.79994 L23.04,-209.3807 L24,-210.96518 L24.96,-212.553 L25.92,-214.14377 L26.88,-215.7371 L27.84,-217.33263 L28.8,-218.92993 L29.76,-220.52864 L30.72,-222.12834 L31.68,-223.72864 L32.64,-225.32912 L33.6,-226.92938 L34.56,-228.52904 L35.52,-230.12766 L36.48,-231.72484 L37.44,-233.32018 L38.4,-234.91327 L39.36,-236.50371 L40.32,-238.09108 L41.28,-239.67497 L42.24,-241.255 L43.2,-242.83078 L44.16,-244.40187 L45.12,-245.96793 L46.08,-247.52852 L47.04,-249.08327 L48,-250.63182 L48.96,-252.17377 L49.92,-253.70874 L50.88,-255.23639 L51.84,-256.75635 L52.8,-258.26825 L53.76,-259.77173 L54.72,-261.26648 L55.68,-262.75217 L56.64,-264.22842 L57.6,-265.69495 L58.56,-267.1514 L59.52,-268.59753 L60.48,-270.033 L61.44,-271.4575 L62.4,-272.8708 L63.36,-274.27255 L64.32,-275.66254 L65.28,-277.0405 L66.24,-278.40616 L67.2,-279.7593 L68.16,-281.09967 L69.12,-282.42706 L70.08,-283.74127 L71.04,-285.04205 L72,-286.32922 L72.96,-287.6026 L73.92,-288.862 L74.88,-290.10724 L75.84,-291.33817 L76.8,-292.55463 L77.76,-293.75647 L78.72,-294.94354 L79.68,-296.11575 L80.64,-297.27292 L81.6,-298.41498 L82.56,-299.5418 L83.52,-300.65332 L84.48,-301.7494 L85.44,-302.82996 L86.4,-303.89493 L87.36,-304.94424 L88.32,-305.97784 L89.28,-306.99567 L90.24,-307.99768 L91.2,-308.9838 L92.16,-309.95398 L93.12,-310.90826 L94.08,-311.84653 L95.04,-312.7688 L96,-313.67508 L96.96,-314.5653 L97.92,-315.4395 L98.88,-316.29764 L99.84,-317.13977 L100.8,-317.96582 L101.76,-318.77585 L102.72,-319.56985 L103.68,-320.34784 L104.64,-321.1098 L105.6,-321.85583 L106.56,-322.58588 L107.52,-323.3 L108.48,-323.99817 L109.44,-324.68048 L110.4,-325.34695 L111.36,-325.99756 L112.32,-326.6324 L113.28,-327.25146 L114.24,-327.85477 L115.2,-328.44238 L116.16,-329.0143 L117.12,-329.57062 L118.08,-330.1113 L119.04,-330.63638 L120,-331.14594 L120.96,-331.63998 L121.92,-332.11853 L122.88,-332.5816 L123.84,-333.02924 L124.8,-333.4615 L125.76,-333.87836 L126.72,-334.27985 L127.68,-334.66602 L128.64,-335.03687 L129.6,-335.3924 L130.56,-335.73267 L131.52,-336.05765 L132.48,-336.3674 L133.44,-336.66187 L134.4,-336.94113 L135.36,-337.20514 L136.32,-337.45395 L137.28,-337.6875 L138.24,-337.90585 L139.2,-338.10895 L140.16,-338.2968 L141.12,-338.46945 L142.08,-338.6268 L143.04,-338.76892 L144,-338.89575 L144.96,-339.00726 L145.92,-339.1035 L146.88,-339.18433 L147.84,-339.24985 L148.8,-339.29996 L149.76,-339.3347 L150.72,-339.35394 L151.68,-339.35773 L152.64,-339.346 L153.6,-339.31876 L154.56,-339.2759 L155.52,-339.21747 L156.48,-339.14334 L157.44,-339.05356 L158.4,-338.94803 L159.36,-338.82672 L160.32,-338.6896 L161.28,-338.53662 L162.24,-338.36774 L163.2,-338.1829 L164.16,-337.98206 L165.12,-337.7652 L166.08,-337.53226 L167.04,-337.2832 L168,-337.01797 L168.96,-336.7365 L169.92,-336.43884 L170.88,-336.12485 L171.84,-335.79453 L172.8,-335.44785 L173.76,-335.08478 L174.72,-334.70526 L175.68,-334.30923 L176.64,-333.89673 L177.6,-333.4677 L178.56,-333.0221 L179.52,-332.5599 L180.48,-332.08112 L181.44,-331.5857 L182.4,-331.07364 L183.36,-330.54492 L184.32,-329.99954 L185.28,-329.4375 L186.24,-328.85876 L187.2,-328.2634 L188.16,-327.65134 L189.12,-327.0226 L190.08,-326.37723 L191.04,-325.71524 L192,-325.03665 L192.96,-324.34146 L193.92,-323.62973 L194.88,-322.9015 L195.84,-322.15674 L196.8,-321.3956 L197.76,-320.61804 L198.72,-319.82416 L199.68,-319.014 L200.64,-318.18762 L201.6,-317.34512 L202.56,-316.48654 L203.52,-315.61197 L204.48,-314.72147 L205.44,-313.81516 L206.4,-312.8931 L207.36,-311.9554 L208.32,-311.00217 L209.28,-310.03354 L210.24,-309.04956 L211.2,-308.05038 L212.16,-307.0361 L213.12,-306.0069 L214.08,-304.96286 L215.04,-303.9041 L216,-302.8308 L216.96,-301.74307 L217.92,-300.64108 L218.88,-299.52496 L219.84,-298.39487 L220.8,-297.25098 L221.76,-296.0934 L222.72,-294.92236 L223.68,-293.738 L224.64,-292.5405 L225.6,-291.33 L226.56,-290.1067 L227.52,-288.87076 L228.48,-287.62238 L229.44,-286.36176 L230.4,-285.08902 L231.36,-283.80444 L232.32,-282.50812 L233.28,-281.20032 L234.24,-279.88116 L235.2,-278.5509 L236.16,-277.20972 L237.12,-275.8578 L238.08,-274.49533 L239.04,-273.12253 L240,-271.73956 L240.96,-270.34665 L241.92,-268.944 L242.88,-267.53177 L243.84,-266.1102 L244.8,-264.67947 L245.76,-263.23978 L246.72,-261.79132 L247.68,-260.3343 L248.64,-258.86887 L249.6,-257.39526 L250.56,-255.91368 L251.52,-254.42429 L252.48,-252.92729 L253.44,-251.42285 L254.4,-249.9112 L255.36,-248.39247 L256.32,-246.86688 L257.28,-245.3346 L258.24,-243.7958 L259.2,-242.25069 L260.16,-240.6994 L261.12,-239.14214 L262.08,-237.57906 L263.04,-236.01031 L264,-234.43611 L264.96,-232.8566 L265.92,-231.27193 L266.88,-229.68227 L267.84,-228.08775 L268.8,-226.48859 L269.76,-224.88487 L270.72,-223.27678 L271.68,-221.66447 L272.64,-220.04808 L273.6,-218.42773 L274.56,-216.8036 L275.52,-215.17581 L276.48,-213.54451 L277.44,-211.9098 L278.4,-210.27187 L279.36,-208.6308 L280.32,-206.98674 L281.28,-205.33983 L282.24,-203.69017 L283.2,-202.0379 L284.16,-200.38316 L285.12,-198.72604 L286.08,-197.06668 L287.04,-195.40521 L288,-193.74171 L288.96,-192.07634 L289.92,-190.4092 L290.88,-188.7404 L291.84,-187.07007 L292.8,-185.3983 L293.76,-183.72522 L294.72,-182.05096 L295.68,-180.37561 L296.64,-178.6993 L297.6,-177.02214 L298.56,-175.34424 L299.52,-173.66571 L300.48,-171.98668 L301.44,-170.30725 L302.4,-168.62756 L303.36,-166.94771 L304.32,-165.26782 L305.28,-163.58801 L306.24,-161.90842 L307.2,-160.22914 L308.16,-158.55031 L309.12,-156.87207 L310.08,-155.19452 L311.04,-153.51779 L312,-151.84204 L312.96,-150.16737 L313.92,-148.49393 L314.88,-146.82185 L315.84,-145.15128 L316.8,-143.48235 L317.76,-141.81519 L318.72,-140.14996 L319.68,-138.48682 L320.64,-136.8259 L321.6,-135.16734 L322.56,-133.51132 L323.52,-131.858 L324.48,-130.2075 L325.44,-128.56003 L326.4,-126.915726 L327.36,-125.27476 L328.32,-123.63729 L329.28,-122.0035 L330.24,-120.373566 L331.2,-118.74766 L332.16,-117.125946 L333.12,-115.50862 L334.08,-113.89587 L335.04,-112.28786 L336,-110.684784 L336.96,-109.08683 L337.92,-107.494194 L338.88,-105.90707 L339.84,-104.32564 L340.8,-102.7501 L341.76,-101.18065 L342.72,-99.61749 L343.68,-98.060814 L344.64,-96.510826 L345.6,-94.96773 L346.56,-93.43171 L347.52,-91.902985 L348.48,-90.38175 L349.44,-88.86822 L350.4,-87.36258 L351.36,-85.865036 L352.32,-84.3758 L353.28,-82.89507 L354.24,-81.42305 L355.2,-79.95994 L356.16,-78.505936 L357.12,-77.06124 L358.08,-75.62605 L359.04,-74.20058 L360,-72.784996 L360.96,-71.37951 L361.92,-69.984314 L362.88,-68.599594 L363.84,-67.22553 L364.8,-65.86233 L365.76,-64.51016 L366.72,-63.16921 L367.68,-61.839645 L368.64,-60.521656 L369.6,-59.215405 L370.56,-57.921062 L371.52,-56.638794 L372.48,-55.368767 L373.44,-54.111134 L374.4,-52.86605 L375.36,-51.633667 L376.32,-50.414135 L377.28,-49.207592 L378.24,-48.014183 L379.2,-46.834038 L380.16,-45.667286 L381.12,-44.514053 L382.08,-43.374466 L383.04,-42.24864 L384,-41.136677 L384.96,-40.038696 L385.92,-38.954796 L386.88,-37.885075 L387.84,-36.829624 L388.8,-35.788532 L389.76,-34.76188 L390.72,-33.749752 L391.68,-32.752213 L392.64,-31.769339 L393.6,-30.80119 L394.56,-29.84782 L395.52,-28.909288 L396.48,-27.985641 L397.44,-27.076921 L398.4,-26.183167 L399.36,-25.30441 L400.32,-24.440683 L401.28,-23.592007 L402.24,-22.7584 L403.2,-21.939878 L404.16,-21.155645 L405.12,-20.387411 L406.08,-19.634895 L407.04,-18.84957 L408,-17.968796 L408.96,-17.110044 L409.92,-16.273256 L410.88,-15.4859915 L411.84,-14.793118 L412.8,-14.117738 L413.76,-13.459799 L414.72,-12.8192425 L415.68,-12.196006 L416.64,-11.590023 L417.6,-11.001223 L418.56,-10.42953 L419.52,-9.874869 L420.48,-9.337155 L421.44,-8.816305 L422.4,-8.312228 L423.36,-7.8248334 L424.32,-7.354024 L425.28,-6.899701 L426.24,-6.4123645 L427.2,-5.922102 L428.16,-5.451051 L429.12,-5.019444 L430.08,-4.619411 L431.04,-4.2352557 L432,-3.866862 L432.96,-3.5141122 L433.92,-3.1768863 L434.88,-2.8550622 L435.84,-2.5485153 L436.8,-2.2571197 L437.76,-1.9807472 L438.72,-1.719268 L439.68,-1.4725504 L440.64,-1.2404612 L441.6,-1.0228657 L442.56,-0.8196272 L443.52,-0.63060826 L444.48,-0.45566955 L445.44,-0.31158495 L446.4,-0.236531 L447.36,-0.17443904 L448.32,-0.12517338 L449.28,-0.08859707 L450.24,-0.064571954 L451.2,-0.052958716 L452.16,-0.053616952 L453.12,-0.06640521 L454.08,-0.09118104 L455.04,-0.12780108 L456,-0.17612104 L456.96,-0.23599586 L457.92,-0.30727965 L458.88,-0.3898258 L459.84,-0.48348704 L460.8,-0.66580003 L461.76,-0.87609154 L462.72,-1.095599 L463.68,-1.3241953 L464.64,-1.5617521 L465.6,-1.808141 L466.56,-2.0632331 L467.52,-2.3268993 L468.48,-2.5990098 L469.44,-2.8794343 L470.4,-3.1680427 L471.36,-3.4647043 L472.32,-3.769288 L473.28,-4.081663 L474.24,-4.4016976 L475.2,-4.729261 L476.16,-5.0642214 L477.12,-5.4064465 L478.08,-5.7558055 L479.04,-6.1121664" fill="none" stroke="blue" stroke-linejoin="round" stroke-width="2"/>
</g>
</g>
<g>
<g>
<line stroke="black" stroke-width="1" x1="0" x2="0" y1="0" y2="10"/>
<line stroke="black" stroke-width="1" x1="96" x2="96" y1="0" y2="10"/>
<line stroke="black" stroke-width="1" x1="192" x2="192" y1="0" y2="10"/>
<line stroke="black" stroke-width="1" x1="288" x2="288" y1="0" y2="10"/>
<line stroke="black" stroke-width="1" x1="384" x2="384" y1="0" y2="10"/>
<line stroke="black" stroke-width="1" x1="480" x2="480" y1="0" y2="10"/>
</g>
<line stroke="black" stroke-width="1" x1="0" x2="480" y1="0" y2="0"/>
<g>
<text font-size="12" text-anchor="middle" x="0" y="20">
0
</text>
<text font-size="12" text-anchor="middle" x="96" y="20">
1
</text>
<text font-size="12" text-anchor="middle" x="192" y="20">
2
</text>
<text font-size="12" text-anchor="middle" x="288" y="20">
3
</text>
<text font-size="12" text-anchor="middle" x="384" y="20">
4
</text>
<text font-size="12" text-anchor="middle" x="480" y="20">
5
</text>
</g>
<text font-size="12" text-anchor="middle" x="240" y="30">

</text>
</g>
<g>
<g>
<line stroke="black" stroke-width="1" x1="0" x2="-10" y1="-0" y2="-0"/>
<line stroke="black" stroke-width="1" x1="0" x2="-10" y1="-85" y2="-85"/>
<line stroke="black" stroke-width="1" x1="0" x2="-10" y1="-170" y2="-170"/>
<line stroke="black" stroke-width="1" x1="0" x2="-10" y1="-255" y2="-255"/>
<line stroke="black" stroke-width="1" x1="0" x2="-10" y1="-340" y2="-340"/>
</g>
<line stroke="black" stroke-width="1" x1="0" x2="0" y1="0" y2="-340"/>
<g>
<text dominant-baseline="middle" font-size="12" text-anchor="end" x="-15" y="-0">
-1
</text>
<text dominant-baseline="middle" font-size="12" text-anchor="end" x="-15" y="-85">
-0.5
</text>
<text dominant-baseline="middle" font-size="12" text-anchor="end" x="-15" y="-170">
0
</text>
<text dominant-baseline="middle" font-size="12" text-anchor="end" x="-15" y="-255">
0.5
</text>
<text dominant-baseline="middle" font-size="12" text-anchor="end" x="-15" y="-340">
1
</text>
</g>
<text font-size="12" text-anchor="middle" transform="rotate(-90 -48 -170)" x="-48" y="-182">

</text>
</g>
</g>
</svg>