<svg viewBox="0 0 600 400" xmlns="http://www.w3.org/2000/svg">
<g transform="translate(72, 364)">
<g>
<g>
<path d="M0,-168.74055 L0,-168.74055 L0.96192384,-185.38042 L1.9238477,-201.85402 L2.8857715,-217.99677 L3.8476954,-233.64735 L4.8096194,-248.64941 L5.771543,-262.85306 L6.733467,-276.11636 L7.6953907,-288.3068 L8.657314,-299.30255 L9.619239,-308.9938 L10.581162,-317.28366 L11.543086,-324.08936 L12.50501,-329.34283 L13.466934,-332.99164 L14.428858,-334.9993 L15.390781,-335.34576 L16.352705,-334.02753 L17.314629,-331.05783 L18.276552,-326.4663 L19.238478,-320.29886 L20.200401,-312.61707 L21.162325,-303.4977 L22.124249,-293.03192 L23.086172,-281.32425 L24.048096,-268.49167 L25.01002,-254.6624 L25.971945,-239.97464 L26.933868,-224.57513 L27.895792,-208.61774 L28.857716,-192.26192 L29.81964,-175.67107 L30.781563,-159.01097 L31.743486,-142.4481 L32.70541,-126.14793 L33.667336,-110.27332 L34.629257,-94.98291 L35.591183,-80.42945 L36.553104,-66.75838 L37.51503,-54.10627 L38.476955,-42.599552 L39.438877,-32.35319 L40.400803,-23.46957 L41.362724,-16.037449 L42.32465,-10.131086 L43.28657,-5.8094974 L44.248497,-3.1158612 L45.210423,-2.0770924 L46.172344,-2.70357 L47.13427,-4.989034 L48.09619,-8.910649 L49.058117,-14.429233 L50.02004,-21.489643 L50.981964,-30.021336 L51.94389,-39.939068 L52.90581,-51.143738 L53.867737,-63.5234 L54.82966,-76.95435 L55.791584,-91.30241 L56.753506,-106.424194 L57.71543,-122.16863 L58.677353,-138.3784 L59.63928,-154.89153 L60.601204,-171.54305 L61.563126,-188.16655 L62.52505,-204.59596 L63.486973,-220.66711 L64.4489,-236.21944 L65.41082,-251.09752 L66.37274,-265.15274 L67.33467,-278.24463 L68.29659,-290.2424 L69.258514,-301.02615 L70.22044,-310.48816 L71.182365,-318.53387 L72.14429,-325.0829 L73.10621,-330.0698 L74.06814,-333.44473 L75.03006,-335.17404 L75.99198,-335.24036 L76.95391,-333.6431 L77.91583,-330.39816 L78.877754,-325.53802 L79.839676,-319.11118 L80.801605,-311.18192 L81.76353,-301.8294 L82.72545,-291.14713 L83.68738,-279.2418 L84.6493,-266.23236 L85.61122,-252.24884 L86.57314,-237.43092 L87.53507,-221.92668 L88.496994,-205.89102 L89.458916,-189.48416 L90.420845,-172.87004 L91.38277,-156.21465 L92.34469,-139.68442 L93.30661,-123.44452 L94.26854,-107.65719 L95.23046,-92.48019 L96.19238,-78.065155 L97.15431,-64.55612 L98.116234,-52.088066 L99.078156,-40.78556 L100.04008,-30.761541 L101.00201,-22.116161 L101.96393,-14.935805 L102.92585,-9.292214 L103.88778,-5.241779 L104.8497,-2.8249695 L105.81162,-2.0659335 L106.773544,-2.9722555 L107.73547,-5.534879 L108.697395,-9.728201 L109.65932,-15.510321 L110.62124,-22.823467 L111.58317,-31.594568 L112.54509,-41.73599 L113.50701,-53.146393 L114.46894,-65.71178 L115.43086,-79.306595 L116.392784,-93.795006 L117.354706,-109.03224 L118.316635,-124.86607 L119.27856,-141.13828 L120.24048,-157.68628 L121.20241,-174.34473 L122.16433,-190.94717 L123.12625,-207.32776 L124.08817,-223.32277 L125.0501,-238.77243 L126.012024,-253.52235 L126.973946,-267.42517 L127.935875,-280.34195 L128.8978,-292.14365 L129.85973,-302.71234 L130.82164,-311.94244 L131.78357,-319.7417 L132.74548,-326.03223 L133.70741,-330.75113 L134.66934,-333.8513 L135.63126,-335.3017 L136.59319,-335.08792 L137.55511,-333.212 L138.51703,-329.69278 L139.47896,-324.56537 L140.44089,-317.881 L141.4028,-309.70648 L142.36473,-300.12347 L143.32666,-289.22772 L144.28857,-277.1281 L145.2505,-263.94553 L146.21242,-249.81168 L147.17435,-234.8678 L148.13628,-219.2632 L149.09819,-203.1538 L150.06012,-186.70053 L151.02205,-170.06784 L151.98396,-153.42188 L152.94589,-136.92897 L153.90782,-120.753914 L154.86974,-105.05833 L155.83167,-89.99903 L156.7936,-75.726494 L157.75551,-62.383327 L158.71744,-50.10284 L159.67935,-39.007748 L160.64128,-29.2089 L161.60321,-20.804207 L162.56512,-13.8776455 L163.52705,-8.498423 L164.48898,-4.7202864 L165.4509,-2.5809867 L166.41283,-2.1018982 L167.37476,-3.2878082 L168.33667,-6.1268673 L169.2986,-10.590709 L170.26053,-16.634731 L171.22244,-24.198545 L172.18437,-33.206573 L173.14629,-43.568817 L174.10822,-55.181732 L175.07014,-67.92929 L176.03206,-81.68412 L176.99399,-96.308784 L177.95592,-111.65717 L178.91783,-127.57591 L179.87976,-143.90596 L180.84169,-160.48415 L181.8036,-177.14482 L182.76553,-193.72153 L183.72745,-210.04865 L184.68938,-225.96301 L185.6513,-241.30563 L186.61322,-255.9232 L187.57515,-269.66968 L188.53708,-282.4077 L189.499,-294.01 L190.46092,-304.36066 L191.42285,-313.35623 L192.38477,-320.90686 L193.3467,-326.9371 L194.30862,-331.3867 L195.27054,-334.21115 L196.23247,-335.3823 L197.19438,-334.88843 L198.15631,-332.73444 L199.11824,-328.9419 L200.08015,-323.54868 L201.04208,-316.60867 L202.00401,-308.1912 L202.96593,-298.38037 L203.92786,-287.27426 L204.88979,-274.98376 L205.8517,-261.63174 L206.81363,-247.35158 L207.77556,-232.28596 L208.73747,-216.58542 L209.6994,-200.40683 L210.66132,-183.91183 L211.62325,-167.26526 L212.58517,-150.63342 L213.54709,-134.1825 L214.50902,-118.07687 L215.47095,-102.47746 L216.43286,-87.54014 L217.39479,-73.41413 L218.35672,-60.240597 L219.31863,-48.15116 L220.28056,-37.266613 L221.24248,-27.69571 L222.2044,-19.534079 L223.16634,-12.86327 L224.12825,-7.749936 L225.09018,-4.2451673 L226.05211,-2.3839817 L227.01402,-2.184976 L227.97595,-3.650139 L228.93788,-6.7648306 L229.8998,-11.497931 L230.86172,-17.802147 L231.82365,-25.614489 L232.78557,-34.8569 L233.7475,-45.437035 L234.70941,-57.249172 L235.67134,-70.1753 L236.63327,-84.08626 L237.59518,-98.84305 L238.55711,-114.29824 L239.51904,-130.2974 L240.48096,-146.68066 L241.44289,-163.28435 L242.40482,-179.94255 L243.36673,-196.48883 L244.32866,-212.75784 L245.29059,-228.58707 L246.2525,-243.81831 L247.21443,-258.2994 L248.17635,-271.88568 L249.13828,-284.44135 L250.1002,-295.84094 L251.06212,-305.9706 L252.02405,-314.72916 L252.98598,-322.029 L253.94789,-327.79724 L254.90982,-331.97623 L255.87175,-334.52423 L256.83368,-335.41577 L257.7956,-334.64197 L258.7575,-332.2105 L259.71945,-328.14572 L260.68137,-322.48822 L261.64328,-315.2945 L262.60522,-306.63647 L263.56714,-296.60065 L264.52905,-285.28726 L265.49097,-272.80942 L266.4529,-259.29172 L267.41483,-244.86928 L268.37674,-229.68617 L269.33868,-213.89412 L270.3006,-197.65091 L271.2625,-181.11885 L272.22446,-164.4631 L273.18637,-147.85008 L274.1483,-131.4458 L275.11023,-115.41416 L276.07214,-99.915344 L277.03406,-85.104195 L277.996,-71.12872 L278.95792,-58.128548 L279.91983,-46.233574 L280.88177,-35.56265 L281.8437,-26.222395 L282.8056,-18.306135 L283.76755,-11.892965 L284.72946,-7.0469656 L285.69138,-3.8165548 L286.65332,-2.2340102 L287.61523,-2.3151438 L288.57715,-4.0591455 L289.5391,-7.448589 L290.501,-12.449609 L291.46292,-19.012236 L292.42484,-27.0709 L293.38678,-36.54508 L294.3487,-47.34011 L295.3106,-59.348137 L296.27255,-72.44918 L297.23447,-86.51233 L298.19638,-101.39708 L299.15833,-116.9547 L300.12024,-133.02975 L301.08215,-149.46161 L302.0441,-166.08609 L303.006,-182.7371 L303.96793,-199.24828 L304.92987,-215.4546 L305.89178,-231.1942 L306.8537,-246.30977 L307.81564,-260.6503 L308.77756,-274.07248 L309.73947,-286.44223 L310.70142,-297.63596 L311.66333,-307.5418 L312.62524,-316.0608 L313.5872,-323.1078 L314.5491,-328.6124 L315.51102,-332.51962 L316.47293,-334.79044 L317.43488,-335.40213 L318.3968,-334.3486 L319.3587,-331.64035 L320.32065,-327.30447 L321.28256,-321.38428 L322.24448,-313.9389 L323.20642,-305.0428 L324.16833,-294.78476 L325.13025,-283.26733 L326.0922,-270.60562 L327.0541,-256.9261 L328.01602,-242.36543 L328.97797,-227.06915 L329.93988,-211.19006 L330.9018,-194.88683 L331.86374,-178.32236 L332.82565,-161.66214 L333.78757,-145.07266 L334.7495,-128.71965 L335.71143,-112.76653 L336.67334,-97.37267 L337.63528,-82.6919 L338.5972,-68.8709 L339.5591,-56.047768 L340.52106,-44.350624 L341.48297,-33.89634 L342.4449,-24.789373 L343.4068,-17.120722 L344.36874,-10.967006 L345.33066,-6.3897104 L346.29257,-3.4345713 L347.25452,-2.1311147 L348.21643,-2.4923646 L349.17834,-4.5147114 L350.1403,-8.177949 L351.1022,-13.445475 L352.06412,-20.264658 L353.02606,-28.567364 L353.98798,-38.270634 L354.9499,-49.277515 L355.91183,-61.47803 L356.87375,-74.75028 L357.83566,-88.96165 L358.7976,-103.970146 L359.75952,-119.6258 L360.72144,-135.7722 L361.68338,-152.248 L362.6453,-168.8886 L363.6072,-185.52771 L364.56915,-201.99908 L365.53107,-218.13817 L366.49298,-233.78368 L367.4549,-248.7793 L368.41684,-262.9752 L369.37875,-276.22952 L370.34067,-288.40988 L371.3026,-299.39453 L372.26453,-309.07373 L373.22644,-317.35077 L374.1884,-324.1429 L375.1503,-329.38235 L376.1122,-333.01672 L377.07416,-335.0097 L378.03607,-335.34137 L378.998,-334.0084 L379.95993,-331.02414 L380.92184,-326.4184 L381.88376,-320.23718 L382.8457,-312.54227 L383.80762,-303.41055 L384.76953,-292.93323 L385.73148,-281.21503 L386.6934,-268.37302 L387.6553,-254.53552 L388.61725,-239.84077 L389.57916,-224.43562 L390.54108,-208.474 L391.50302,-192.11536 L392.46494,-175.52316 L393.42685,-158.8632 L394.38876,-142.30193 L395.3507,-126.00482 L396.31262,-110.13472 L397.27454,-94.85019 L398.23648,-80.30394 L399.1984,-66.64133 L400.1603,-53.99885 L401.12225,-42.50284 L402.08417,-32.268154 L403.04608,-23.397053 L404.00803,-15.978177 L404.96994,-10.085653 L405.93185,-5.7783566 L406.8938,-3.099324 L407.8557,-2.075324 L408.81763,-2.7165883 L409.77957,-5.016709 L410.7415,-8.952704 L411.7034,-14.485247 L412.66534,-21.559057 L413.62726,-30.103458 L414.58917,-40.033073 L415.55112,-51.24869 L416.51303,-63.638252 L417.47495,-77.07796 L418.43686,-91.433525 L419.3988,-106.56152 L420.36072,-122.31079 L421.32263,-138.52397 L422.28458,-155.03906 L423.2465,-171.69106 L424.2084,-188.31357 L425.17035,-204.74051 L426.13226,-220.80775 L427.09418,-236.35477 L428.05612,-251.2262 L429.01804,-265.27347 L429.97995,-278.3562 L430.9419,-290.3437 L431.9038,-301.11615 L432.86572,-310.56598 L433.82767,-318.59872 L434.78958,-325.13412 L435.7515,-330.10693 L436.71344,-333.46738 L437.67535,-335.18195 L438.63727,-335.2335 L439.5992,-333.6215 L440.56113,-330.36206 L441.52304,-325.48773 L442.48495,-319.04727 L443.4469,-311.10498 L444.4088,-301.74023 L445.37073,-291.0466 L446.33267,-279.13092 L447.2946,-266.11227 L448.2565,-252.1207 L449.21844,-237.29602 L450.18036,-221.78636 L451.14227,-205.74669 L452.10422,-189.33727 L453.06613,-172.72205 L454.02805,-156.06705 L454.99,-139.53867 L455.9519,-123.30207 L456.91382,-107.51948 L457.87576,-92.34859 L458.83768,-77.94098 L459.7996,-64.44061 L460.76154,-51.982376 L461.72345,-40.690746 L462.68536,-30.67855 L463.6473,-22.045824 L464.60922,-14.878822 L465.57114,-9.249157 L466.53308,-5.213076 L467.495,-2.810908 L468.4569,-2.0666544 L469.41882,-2.9877515 L470.38077,-5.564996 L471.34268,-9.772636 L472.3046,-15.568631 L473.26654,-22.895071 L474.22845,-31.67875 L475.19037,-41.831905 L476.1523,-53.25309 L477.11423,-65.828186 L478.07614,-79.43155 L479.0381,-93.92726 L480,-109.17048" fill="none" stroke="burlywood" stroke-linejoin="round" stroke-width="2"/>
</g>
</g>
<g>
<g>
<path d="M0,-25.21755 L0,-25.21755 L0.96192384,-29.396173 L1.9238477,-33.758804 L2.8857715,-38.30499 L3.8476954,-43.03358 L4.8096194,-47.942673 L5.771543,-53.029537 L6.733467,-58.290592 L7.6953907,-63.72134 L8.657314,-69.31635 L9.619239,-75.06924 L10.581162,-80.97264 L11.543086,-87.01822 L12.50501,-93.196686 L13.466934,-99.49784 L14.428858,-105.91057 L15.390781,-112.422966 L16.352705,-119.02235 L17.314629,-125.69535 L18.276552,-132.42805 L19.238478,-139.20607 L20.200401,-146.01463 L21.162325,-152.83876 L22.124249,-159.66335 L23.086172,-166.47331 L24.048096,-173.25372 L25.01002,-179.98993 L25.971945,-186.66766 L26.933868,-193.27318 L27.895792,-199.79332 L28.857716,-206.21565 L29.81964,-212.5285 L30.781563,-218.72112 L31.743486,-224.78355 L32.70541,-230.70691 L33.667336,-236.48322 L34.629257,-242.10548 L35.591183,-247.56773 L36.553104,-252.86494 L37.51503,-257.99304 L38.476955,-262.94885 L39.438877,-267.73007 L40.400803,-272.3352 L41.362724,-276.76352 L42.32465,-281.01492 L43.28657,-285.08997 L44.248497,-288.98972 L45.210423,-292.7157 L46.172344,-296.26974 L47.13427,-299.65408 L48.09619,-302.87106 L49.058117,-305.92313 L50.02004,-308.8128 L50.981964,-311.54248 L51.94389,-314.11438 L52.90581,-316.53046 L53.867737,-318.79227 L54.82966,-320.90094 L55.791584,-322.85684 L56.753506,-324.6597 L57.71543,-326.30826 L58.677353,-327.80026 L59.63928,-329.1322 L60.601204,-330.2991 L61.563126,-331.29437 L62.52505,-332.10947 L63.486973,-332.73376 L64.4489,-333.1541 L65.41082,-333.3546 L66.37274,-333.3163 L67.33467,-333.01672 L68.29659,-332.4295 L69.258514,-331.5241 L70.22044,-330.26538 L71.182365,-328.61328 L72.14429,-326.52264 L73.10621,-323.943 L74.06814,-320.81876 L75.03006,-317.08936 L75.99198,-312.69012 L76.95391,-307.55316 L77.91583,-301.60904 L78.877754,-294.7891 L79.839676,-287.0282 L80.801605,-278.26843 L81.76353,-268.46335 L82.72545,-257.58276 L83.68738,-245.61758 L84.6493,-232.58488 L85.61122,-218.53183 L86.57314,-203.53862 L87.53507,-187.7195 L88.496994,-171.22139 L89.458916,-154.21997 L90.420845,-136.91316 L91.38277,-119.51261 L92.34469,-102.2337 L93.30661,-85.28522 L94.26854,-68.859695 L95.23046,-53.26393 L96.19238,-43.56843 L97.15431,-49.547947 L98.116234,-61.19671 L99.078156,-73.2621 L100.04008,-85.673065 L101.00201,-98.34835 L101.96393,-111.19807 L102.92585,-124.125755 L103.88778,-137.03082 L104.8497,-149.81113 L105.81162,-162.36562 L106.773544,-174.59698 L107.73547,-186.41386 L108.697395,-197.73283 L109.65932,-208.47986 L110.62124,-218.59114 L111.58317,-228.01364 L112.54509,-236.70493 L113.50701,-244.63268 L114.46894,-251.7739 L115.43086,-258.11374 L116.392784,-263.64444 L117.354706,-268.36386 L118.316635,-272.27435 L119.27856,-275.38156 L120.24048,-277.69345 L121.20241,-279.21927 L122.16433,-279.9691 L123.12625,-279.95325 L124.08817,-279.18204 L125.0501,-277.66577 L126.012024,-275.41473 L126.973946,-272.4397 L127.935875,-268.7522 L128.8978,-264.36517 L129.85973,-259.2937 L130.82164,-253.55573 L131.78357,-247.17278 L132.74548,-240.17078 L133.70741,-232.58073 L134.66934,-224.43925 L135.63126,-215.78903 L136.59319,-206.67902 L137.55511,-197.16434 L138.51703,-187.30606 L139.47896,-177.17062 L140.44089,-166.82898 L141.4028,-156.35559 L142.36473,-145.82721 L143.32666,-135.32155 L144.28857,-124.91593 L145.2505,-114.68596 L146.21242,-104.70435 L147.17435,-95.03988 L148.13628,-85.75662 L149.09819,-76.91342 L150.06012,-68.56367 L151.02205,-60.75534 L151.98396,-53.531345 L152.94589,-46.93001 L153.90782,-40.98586 L154.86974,-35.730423 L155.83167,-31.193186 L156.7936,-27.402534 L157.75551,-24.386637 L158.71744,-22.174232 L159.67935,-20.795246 L160.64128,-20.281162 L161.60321,-20.66509 L162.56512,-21.981476 L163.52705,-24.265364 L164.48898,-27.551184 L165.4509,-31.871006 L166.41283,-37.252274 L167.37476,-43.71502 L168.33667,-51.268684 L169.2986,-59.908676 L170.26053,-69.61292 L171.22244,-80.338684 L172.18437,-92.020096 L173.14629,-104.56666 L174.10822,-117.8632 L175.07014,-131.77144 L176.03206,-146.13329 L176.99399,-160.77574 L177.95592,-175.51714 L178.91783,-190.17412 L179.87976,-204.56871 L180.84169,-218.53503 L181.8036,-231.92468 L182.76553,-244.61078 L183.72745,-256.4902 L184.68938,-267.484 L185.6513,-277.53638 L186.61322,-286.61218 L187.57515,-294.6938 L188.53708,-301.7771 L189.499,-307.77893 L190.46092,-312.79062 L191.42285,-316.83908 L192.38477,-319.93173 L193.3467,-322.0715 L194.30862,-323.25443 L195.27054,-323.46793 L196.23247,-322.6896 L197.19438,-320.88654 L198.15631,-318.01538 L199.11824,-314.02286 L200.08015,-308.84747 L201.04208,-302.42206 L202.00401,-294.67715 L202.96593,-285.54608 L203.92786,-274.9709 L204.88979,-262.90933 L205.8517,-249.34311 L206.81363,-234.28578 L207.77556,-217.7907 L208.73747,-199.95729 L209.6994,-181.17558 L210.66132,-167.02629 L211.62325,-152.45175 L212.58517,-137.55908 L213.54709,-122.4661 L214.50902,-107.29964 L215.47095,-92.193726 L216.43286,-77.28794 L217.39479,-69.176636 L218.35672,-61.80521 L219.31863,-54.74261 L220.28056,-48.068695 L221.24248,-41.877575 L222.2044,-36.280773 L223.16634,-31.410633 L224.12825,-27.423744 L225.09018,-24.503933 L226.05211,-22.864073 L227.01402,-22.74558 L227.97595,-24.41402 L228.93788,-28.148872 L229.8998,-34.225315 L230.86172,-42.886417 L231.82365,-54.30546 L232.78557,-68.54101 L233.7475,-85.491196 L234.70941,-104.85789 L235.67134,-126.13353 L236.63327,-148.62148 L237.59518,-171.49289 L238.55711,-193.87231 L239.51904,-214.9335 L240.48096,-233.98354 L241.44289,-250.51738 L242.40482,-264.23593 L243.36673,-275.03125 L244.32866,-282.95044 L245.29059,-288.1505 L246.2525,-290.85513 L247.21443,-291.31885 L248.17635,-289.80164 L249.13828,-286.55286 L250.1002,-281.8032 L251.06212,-275.76212 L252.02405,-268.61816 L252.98598,-260.4212 L253.94789,-251.45882 L254.90982,-241.8758 L255.87175,-231.81319 L256.83368,-221.4096 L257.7956,-210.8015 L258.7575,-200.12256 L259.71945,-189.50232 L260.68137,-179.06429 L261.64328,-168.92377 L262.60522,-159.18588 L263.56714,-149.94377 L264.52905,-141.27744 L265.49097,-133.25298 L266.4529,-125.92265 L267.41483,-119.3254 L268.37674,-113.487816 L269.33868,-108.42552 L270.3006,-104.144714 L271.2625,-100.64383 L272.22446,-97.915054 L273.18637,-95.94584 L274.1483,-94.72012 L275.11023,-94.219345 L276.07214,-94.42324 L277.03406,-95.31034 L277.996,-96.90544 L278.95792,-99.3761 L279.91983,-102.46937 L280.88177,-106.4284 L281.8437,-111.087654 L282.8056,-116.308 L283.76755,-122.06059 L284.72946,-128.31155 L285.69138,-135.02167 L286.65332,-142.1463 L287.61523,-149.63559 L288.57715,-157.43472 L289.5391,-165.48466 L290.501,-173.72292 L291.46292,-182.08453 L292.42484,-190.50339 L293.38678,-198.91327 L294.3487,-207.24916 L295.3106,-215.4484 L296.27255,-223.45158 L297.23447,-231.20343 L298.19638,-238.65321 L299.15833,-245.75504 L300.12024,-252.46779 L301.08215,-258.7548 L302.0441,-264.58322 L303.006,-269.92325 L303.96793,-274.7472 L304.92987,-279.02823 L305.89178,-282.73926 L306.8537,-285.8517 L307.81564,-288.3343 L308.77756,-290.15198 L309.73947,-291.26495 L310.70142,-291.6282 L311.66333,-290.27985 L312.62524,-287.87668 L313.5872,-284.98834 L314.5491,-281.57144 L315.51102,-277.58246 L316.47293,-272.97897 L317.43488,-267.72137 L318.3968,-261.77493 L319.3587,-255.11201 L320.32065,-247.71468 L321.28256,-239.57736 L322.24448,-230.70937 L323.20642,-221.13715 L324.16833,-210.906 L325.13025,-200.08087 L326.0922,-188.74615 L327.0541,-177.00418 L328.01602,-164.97252 L328.97797,-152.78009 L329.93988,-140.5623 L330.9018,-128.45578 L331.86374,-116.59288 L332.82565,-105.09668 L333.78757,-94.07674 L334.7495,-83.62592 L335.71143,-73.818565 L336.67334,-64.70976 L337.63528,-56.335938 L338.5972,-48.716293 L339.5591,-41.854923 L340.52106,-36.03964 L341.48297,-31.263372 L342.4449,-27.21639 L343.4068,-23.897408 L344.36874,-21.307201 L345.33066,-19.45057 L346.29257,-18.338062 L347.25452,-17.98749 L348.21643,-18.425137 L349.17834,-19.686655 L350.1403,-21.817545 L351.1022,-24.873098 L352.06412,-28.917694 L353.02606,-34.023205 L353.98798,-40.26637 L354.9499,-47.72489 L355.91183,-56.47212 L356.87375,-66.570206 L357.83566,-78.06197 L358.7976,-90.96168 L359.75952,-105.24552 L360.72144,-120.84288 L361.68338,-137.62944 L362.6453,-155.42366 L363.6072,-173.98772 L364.56915,-193.0335 L365.53107,-212.23341 L366.49298,-231.23505 L367.4549,-249.67746 L368.41684,-262.68457 L369.37875,-273.99164 L370.34067,-284.61118 L371.3026,-294.44626 L372.26453,-303.40726 L373.22644,-311.41156 L374.1884,-318.38293 L375.1503,-324.25043 L376.1122,-328.9473 L377.07416,-332.40964 L378.03607,-334.57523 L378.998,-335.38278 L379.95993,-334.77155 L380.92184,-332.68143 L381.88376,-329.0541 L382.8457,-323.83493 L383.80762,-316.97574 L384.76953,-308.43912 L385.73148,-298.20334 L386.6934,-286.26877 L387.6553,-272.6649 L388.61725,-257.45792 L389.57916,-240.75816 L390.54108,-222.72696 L391.50302,-203.5812 L392.46494,-183.59532 L393.42685,-163.09894 L394.38876,-142.46956 L395.3507,-122.1198 L396.31262,-102.4792 L397.27454,-83.9719 L398.23648,-66.99199 L399.1984,-51.87925 L400.1603,-38.898125 L401.12225,-28.222626 L402.08417,-19.92911 L403.04608,-13.997664 L404.00803,-10.321684 L404.96994,-8.723956 L405.93185,-8.976923 L406.8938,-10.824429 L407.8557,-14.002483 L408.81763,-18.257141 L409.77957,-23.358328 L410.7415,-29.109217 L411.7034,-35.351406 L412.66534,-41.96656 L413.62726,-48.87535 L414.58917,-56.034634 L415.55112,-63.43352 L416.51303,-71.088974 L417.47495,-79.041214 L418.43686,-87.34684 L419.3988,-96.078606 L420.36072,-105.31881 L421.32263,-115.15051 L422.28458,-125.65219 L423.2465,-136.88972 L424.2084,-148.90724 L425.17035,-161.71733 L426.13226,-175.29163 L427.09418,-189.55269 L428.05612,-204.36923 L429.01804,-219.55585 L429.97995,-234.87846 L430.9419,-250.06575 L431.9038,-264.8251 L432.86572,-278.86148 L433.82767,-291.896 L434.78958,-303.68164 L435.7515,-314.0143 L436.71344,-322.73807 L437.67535,-329.7449 L438.63727,-334.97067 L439.5992,-338.38828 L440.56113,-340 L441.52304,-339.83017 L442.48495,-337.91913 L443.4469,-334.31888 L444.4088,-329.0903 L445.37073,-322.3021 L446.33267,-314.03085 L447.2946,-303.2358 L448.2565,-290.81763 L449.21844,-277.10406 L450.18036,-262.2321 L451.14227,-246.36389 L452.10422,-229.65994 L453.06613,-212.30614 L454.02805,-194.50172 L454.99,-176.45547 L455.9519,-158.38109 L456.91382,-140.49211 L457.87576,-122.99697 L458.83768,-106.09437 L459.7996,-89.96935 L460.76154,-74.79042 L461.72345,-60.707825 L462.68536,-47.853 L463.6473,-36.33922 L464.60922,-26.26321 L465.57114,-17.707548 L466.53308,-10.743538 L467.495,-5.434266 L468.4569,-1.8375162 L469.41882,-0.0082012685 L470.38077,-0 L471.34268,-1.8658907 L472.3046,-5.6573157 L473.26654,-11.421777 L474.22845,-19.198772 L475.19037,-29.014177 L476.1523,-40.873363 L477.11423,-54.753708 L478.07614,-70.597336 L479.0381,-88.30528 L480,-107.73412" fill="none" stroke="darkolivegreen" stroke-linejoin="round" stroke-width="2"/>
</g>
</g>
<g>
<g>
<line stroke="black" stroke-width="1" x1="0" x2="0" y1="0" y2="10"/>
<line stroke="black" stroke-width="1" x1="96.19238476953906" x2="96.19238476953906" y1="0" y2="10"/>
<line stroke="black" stroke-width="1" x1="192.38476953907812" x2="192.38476953907812" y1="0" y2="10"/>
<line stroke="black" stroke-width="1" x1="288.5771543086172" x2="288.5771543086172" y1="0" y2="10"/>
<line stroke="black" stroke-width="1" x1="384.76953907815624" x2="384.76953907815624" y1="0" y2="10"/>
</g>
<line stroke="black" stroke-width="1" x1="0" x2="480" y1="0" y2="0"/>
<g>
<text font-size="12" text-anchor="middle" x="0" y="20">
0
</text>
<text font-size="12" text-anchor="middle" x="96.19238476953906" y="20">
10
</text>
<text font-size="12" text-anchor="middle" x="192.38476953907812" y="20">
20
</text>
<text font-size="12" text-anchor="middle" x="288.5771543086172" y="20">
30
</text>
<text font-size="12" text-anchor="middle" x="384.76953907815624" y="20">
40
</text>
</g>
<text font-size="12" text-anchor="middle" x="240" y="30">

</text>
</g>
<g>
<g>
<line stroke="black" stroke-width="1" x1="0" x2="-10" y1="-2.0643012290747143" y2="-2.0643012290747143"/>
<line stroke="black" stroke-width="1" x1="0" x2="-10" y1="-85.40243080525876" y2="-85.40243080525876"/>
<line stroke="black" stroke-width="1" x1="0" x2="-10" y1="-168.7405603814428" y2="-168.7405603814428"/>
<line stroke="black" stroke-width="1" x1="0" x2="-10" y1="-252.07868995762686" y2="-252.07868995762686"/>
<line stroke="black" stroke-width="1" x1="0" x2="-10" y1="-335.4168195338109" y2="-335.4168195338109"/>
</g>
<line stroke="black" stroke-width="1" x1="0" x2="0" y1="0" y2="-340"/>
<g>
<text dominant-baseline="middle" font-size="12" text-anchor="end" x="-15" y="-2.0643012290747143">
-1
</text>
<text dominant-baseline="middle" font-size="12" text-anchor="end" x="-15" y="-85.40243080525876">
-0.5
</text>
<text dominant-baseline="middle" font-size="12" text-anchor="end" x="-15" y="-168.7405603814428">
0
</text>
<text dominant-baseline="middle" font-size="12" text-anchor="end" x="-15" y="-252.07868995762686">
0.5
</text>
<text dominant-baseline="middle" font-size="12" text-anchor="end" x="-15" y="-335.4168195338109">
1
</text>
</g>
<text font-size="12" text-anchor="middle" transform="rotate(-90 -48 -170)" x="-48" y="-182">

</text>
</g>
</g>
</svg>