<svg viewBox="0 0 600 400" xmlns="http://www.w3.org/2000/svg">
<g transform="translate(72, 364)">
<g>
<g>
<path d="M0,-9.304162 L0,-9.304162 L4.848485,-9.337787 L9.69697,-9.438662 L14.545455,-9.606786 L19.39394,-9.84216 L24.242424,-10.144784 L29.09091,-10.514658 L33.939392,-10.951781 L38.78788,-11.456154 L43.636364,-12.027778 L48.484848,-12.66665 L53.333332,-13.372772 L58.18182,-14.146145 L63.030304,-14.986767 L67.878784,-15.894639 L72.72727,-16.86976 L77.57576,-17.912132 L82.42424,-19.021753 L87.27273,-20.198624 L92.121216,-21.442745 L96.969696,-22.754116 L101.818184,-24.132736 L106.666664,-25.578606 L111.51515,-27.091724 L116.36364,-28.672094 L121.21212,-30.319714 L126.06061,-32.034584 L130.90909,-33.816704 L135.75757,-35.66607 L140.60606,-37.582687 L145.45454,-39.56656 L150.30302,-41.617676 L155.15152,-43.736042 L160,-45.92166 L164.84848,-48.174526 L169.69698,-50.494644 L174.54546,-52.88201 L179.39394,-55.336628 L184.24243,-57.858494 L189.09091,-60.44761 L193.93939,-63.103977 L198.78787,-65.82759 L203.63637,-68.618454 L208.48485,-71.47657 L213.33333,-74.40194 L218.18182,-77.394554 L223.0303,-80.454414 L227.87878,-83.58153 L232.72728,-86.775894 L237.57576,-90.037506 L242.42424,-93.36637 L247.27272,-96.76248 L252.12122,-100.225845 L256.9697,-103.75646 L261.81818,-107.354324 L266.66666,-111.01943 L271.51514,-114.7518 L276.36365,-118.55141 L281.21213,-122.418274 L286.0606,-126.35238 L290.9091,-130.35374 L295.75757,-134.42235 L300.60605,-138.55821 L305.45456,-142.76132 L310.30304,-147.0317 L315.15152,-151.3693 L320,-155.77415 L324.84848,-160.24626 L329.69696,-164.78563 L334.54544,-169.39223 L339.39395,-174.06609 L344.24243,-178.8072 L349.0909,-183.61555 L353.9394,-188.49117 L358.78787,-193.43402 L363.63635,-198.44414 L368.48486,-203.52148 L373.33334,-208.66609 L378.18182,-213.87796 L383.0303,-219.15706 L387.87878,-224.50342 L392.72726,-229.91702 L397.57574,-235.39789 L402.42426,-240.94598 L407.27274,-246.56134 L412.12122,-252.24394 L416.9697,-257.9938 L421.81818,-263.8109 L426.66666,-269.69525 L431.51514,-275.64688 L436.36365,-281.6657 L441.21213,-287.75183 L446.0606,-293.90518 L450.9091,-300.1258 L455.75757,-306.41364 L460.60605,-312.76874 L465.45456,-319.1911 L470.30304,-325.6807 L475.15152,-332.23755 L480,-338.86163" fill="none" stroke="burlywood" stroke-linejoin="round" stroke-width="2"/>
</g>
</g>
<g>
<g>
<path d="M0,-0 L0,-0 L4.848485,-0.9883515 L9.69697,-2.0007522 L14.545455,-3.0377734 L19.39394,-4.1000004 L24.242424,-5.188034 L29.09091,-6.302489 L33.939392,-7.4439955 L38.78788,-8.613199 L43.636364,-9.810762 L48.484848,-11.037361 L53.333332,-12.29369 L58.18182,-13.580458 L63.030304,-14.898393 L67.878784,-16.248238 L72.72727,-17.630753 L77.57576,-19.046715 L82.42424,-20.49692 L87.27273,-21.98218 L92.121216,-23.503326 L96.969696,-25.061205 L101.818184,-26.656681 L106.666664,-28.290638 L111.51515,-29.963974 L116.36364,-31.67761 L121.21212,-33.43248 L126.06061,-35.229538 L130.90909,-37.06975 L135.75757,-38.954105 L140.60606,-40.883606 L145.45454,-42.85927 L150.30302,-44.88213 L155.15152,-46.953236 L160,-49.07365 L164.84848,-51.24445 L169.69698,-53.466724 L174.54546,-55.74158 L179.39394,-58.07012 L184.24243,-60.45348 L189.09091,-62.892776 L193.93939,-65.38916 L198.78787,-67.94376 L203.63637,-70.55775 L208.48485,-73.232254 L213.33333,-75.968445 L218.18182,-78.76746 L223.0303,-81.630455 L227.87878,-84.55858 L232.72728,-87.55295 L237.57576,-90.61471 L242.42424,-93.74496 L247.27272,-96.9448 L252.12122,-100.21531 L256.9697,-103.55755 L261.81818,-106.972534 L266.66666,-110.46127 L271.51514,-114.024734 L276.36365,-117.66386 L281.21213,-121.37953 L286.0606,-125.1726 L290.9091,-129.04387 L295.75757,-132.99408 L300.60605,-137.02393 L305.45456,-141.13405 L310.30304,-145.325 L315.15152,-149.59726 L320,-153.95126 L324.84848,-158.38734 L329.69696,-162.90575 L334.54544,-167.50665 L339.39395,-172.1901 L344.24243,-176.95609 L349.0909,-181.80444 L353.9394,-186.73497 L358.78787,-191.74728 L363.63635,-196.84093 L368.48486,-202.0153 L373.33334,-207.26971 L378.18182,-212.6033 L383.0303,-218.0151 L387.87878,-223.50404 L392.72726,-229.06885 L397.57574,-234.70818 L402.42426,-240.4205 L407.27274,-246.20421 L412.12122,-252.05751 L416.9697,-257.97845 L421.81818,-263.96506 L426.66666,-270.01505 L431.51514,-276.12616 L436.36365,-282.29593 L441.21213,-288.5218 L446.0606,-294.80103 L450.9091,-301.1308 L455.75757,-307.5082 L460.60605,-313.9302 L465.45456,-320.39368 L470.30304,-326.89536 L475.15152,-333.43192 L480,-340" fill="none" stroke="darkolivegreen" stroke-linejoin="round" stroke-width="2"/>
</g>
</g>
<g>
<g>
<line stroke="black" stroke-width="1" x1="0" x2="0" y1="0" y2="10"/>
<line stroke="black" stroke-width="1" x1="96.96969696969697" x2="96.96969696969697" y1="0" y2="10"/>
<line stroke="black" stroke-width="1" x1="193.93939393939394" x2="193.93939393939394" y1="0" y2="10"/>
<line stroke="black" stroke-width="1" x1="290.90909090909093" x2="290.90909090909093" y1="0" y2="10"/>
<line stroke="black" stroke-width="1" x1="387.8787878787879" x2="387.8787878787879" y1="0" y2="10"/>
</g>
<line stroke="black" stroke-width="1" x1="0" x2="480" y1="0" y2="0"/>
<g>
<text font-size="12" text-anchor="middle" x="0" y="20">
0
</text>
<text font-size="12" text-anchor="middle" x="96.96969696969697" y="20">
0.2
</text>
<text font-size="12" text-anchor="middle" x="193.93939393939394" y="20">
0.4
</text>
<text font-size="12" text-anchor="middle" x="290.90909090909093" y="20">
0.6
</text>
<text font-size="12" text-anchor="middle" x="387.8787878787879" y="20">
0.8
</text>
</g>
<text font-size="12" text-anchor="middle" x="240" y="30">

</text>
</g>
<g>
<g>
<line stroke="black" stroke-width="1" x1="0" x2="-10" y1="-9.304161683462768" y2="-9.304161683462768"/>
<line stroke="black" stroke-width="1" x1="0" x2="-10" y1="-76.5539293551087" y2="-76.5539293551087"/>
<line stroke="black" stroke-width="1" x1="0" x2="-10" y1="-143.80369702675463" y2="-143.80369702675463"/>
<line stroke="black" stroke-width="1" x1="0" x2="-10" y1="-211.05346469840057" y2="-211.05346469840057"/>
<line stroke="black" stroke-width="1" x1="0" x2="-10" y1="-278.30323237004654" y2="-278.30323237004654"/>
</g>
<line stroke="black" stroke-width="1" x1="0" x2="0" y1="0" y2="-340"/>
<g>
<text dominant-baseline="middle" font-size="12" text-anchor="end" x="-15" y="-9.304161683462768">
0
</text>
<text dominant-baseline="middle" font-size="12" text-anchor="end" x="-15" y="-76.5539293551087">
0.2
</text>
<text dominant-baseline="middle" font-size="12" text-anchor="end" x="-15" y="-143.80369702675463">
0.4
</text>
<text dominant-baseline="middle" font-size="12" text-anchor="end" x="-15" y="-211.05346469840057">
0.6
</text>
<text dominant-baseline="middle" font-size="12" text-anchor="end" x="-15" y="-278.30323237004654">
0.8
</text>
</g>
<text font-size="12" text-anchor="middle" transform="rotate(-90 -36 -170)" x="-36" y="-182">

</text>
</g>
</g>
</svg>