<svg viewBox="0 0 600 400" xmlns="http://www.w3.org/2000/svg">
<g transform="translate(72, 364)">
<g>
<g>
<path d="M0,-169.77562 L0,-169.77562 L4.848485,-186.72621 L9.69697,-203.50742 L14.545455,-219.9516 L19.39394,-235.89444 L24.242424,-251.17664 L29.09091,-265.6455 L33.939392,-279.15646 L38.78788,-291.57455 L43.636364,-302.77563 L48.484848,-312.64786 L53.333332,-321.09253 L58.18182,-328.02527 L63.030304,-333.37686 L67.878784,-337.0938 L72.72727,-339.13895 L77.57576,-339.49188 L82.42424,-338.14905 L87.27273,-335.1239 L92.121216,-330.44662 L96.969696,-324.164 L101.818184,-316.33878 L106.666664,-307.04913 L111.51515,-296.3879 L116.36364,-284.4616 L121.21212,-271.3894 L126.06061,-257.3019 L130.90909,-242.33987 L135.75757,-226.65282 L140.60606,-210.39745 L145.45454,-193.7362 L150.30302,-176.83554 L155.15152,-159.86435 L160,-142.99219 L164.84848,-126.38764 L169.69698,-110.21661 L174.54546,-94.64067 L179.39394,-79.81546 L184.24243,-65.8891 L189.09091,-53.000732 L193.93939,-41.27915 L198.78787,-30.841454 L203.63637,-21.791946 L208.48485,-14.221043 L213.33333,-8.204389 L218.18182,-3.8021011 L223.0303,-1.058166 L227.87878,-0 L232.72728,-0.6381759 L237.57576,-2.9663172 L242.42424,-6.961162 L247.27272,-12.582795 L252.12122,-19.775047 L256.9697,-28.466055 L261.81818,-38.56898 L266.66666,-49.98288 L271.51514,-62.59371 L276.36365,-76.27547 L281.21213,-90.89144 L286.0606,-106.29561 L290.9091,-122.334045 L295.75757,-138.8465 L300.60605,-155.66798 L305.45456,-172.63043 L310.30304,-189.56436 L315.15152,-206.30055 L320,-222.67181 L324.84848,-238.51454 L329.69696,-253.67046 L334.54544,-267.98813 L339.39395,-281.3245 L344.24243,-293.5463 L349.0909,-304.53143 L353.9394,-314.1701 L358.78787,-322.36606 L363.63635,-329.03738 L368.48486,-334.1174 L373.33334,-337.5554 L378.18182,-339.31696 L383.0303,-339.38452 L387.87878,-337.75742 L392.72726,-334.4519 L397.57574,-329.501 L402.42426,-322.95416 L407.27274,-314.87683 L412.12122,-305.34967 L416.9697,-294.46793 L421.81818,-282.34027 L426.66666,-269.08792 L431.51514,-254.84328 L436.36365,-239.74867 L441.21213,-223.95491 L446.0606,-207.6198 L450.9091,-190.90657 L455.75757,-173.98221 L460.60605,-157.01581 L465.45456,-140.17691 L470.30304,-123.63375 L475.15152,-107.55163 L480,-92.09122" fill="none" stroke="burlywood" stroke-linejoin="round" stroke-width="2"/>
</g>
</g>
<g>
<g>
<path d="M0,-169.7556 L0,-169.7556 L4.848485,-186.87947 L9.69697,-203.85396 L14.545455,-220.41672 L19.39394,-236.35641 L24.242424,-251.50978 L29.09091,-265.75256 L33.939392,-278.98798 L38.78788,-291.13538 L43.636364,-302.121 L48.484848,-311.87158 L53.333332,-320.31067 L58.18182,-327.3578 L63.030304,-332.92993 L67.878784,-336.94437 L72.72727,-339.32346 L77.57576,-340 L82.42424,-338.92368 L87.27273,-336.0675 L92.121216,-331.43387 L96.969696,-325.05914 L101.818184,-317.01587 L106.666664,-307.4118 L111.51515,-296.3855 L116.36364,-284.0985 L121.21212,-270.7257 L126.06061,-256.44476 L130.90909,-241.4268 L135.75757,-225.82947 L140.60606,-209.79356 L145.45454,-193.44359 L150.30302,-176.89183 L155.15152,-160.2455 L160,-143.6155 L164.84848,-127.1253 L169.69698,-110.91842 L174.54546,-95.16226 L179.39394,-80.04712 L184.24243,-65.77921 L189.09091,-52.568275 L193.93939,-40.61144 L198.78787,-30.076637 L203.63637,-21.089468 L208.48485,-13.726775 L213.33333,-8.018645 L218.18182,-3.9581633 L223.0303,-1.5162317 L227.87878,-0.65759045 L232.72728,-1.3541579 L237.57576,-3.592766 L242.42424,-7.375821 L247.27272,-12.715016 L252.12122,-19.619675 L256.9697,-28.082405 L261.81818,-38.06536 L266.66666,-49.49027 L271.51514,-62.234653 L276.36365,-76.13516 L281.21213,-90.99748 L286.0606,-106.61083 L290.9091,-122.76443 L295.75757,-139.26271 L300.60605,-155.93689 L305.45456,-172.65031 L310.30304,-189.2963 L315.15152,-205.78792 L320,-222.041 L324.84848,-237.9533 L329.69696,-253.38515 L334.54544,-268.14813 L339.39395,-282.00726 L344.24243,-294.69992 L349.0909,-305.96753 L353.9394,-315.59256 L358.78787,-323.4294 L363.63635,-329.421 L368.48486,-333.5971 L373.33334,-336.0577 L378.18182,-336.94547 L383.0303,-336.4145 L387.87878,-334.59967 L392.72726,-331.59055 L397.57574,-327.41315 L402.42426,-322.02374 L407.27274,-315.31674 L412.12122,-307.14865 L416.9697,-297.37643 L421.81818,-285.90393 L426.66666,-272.72684 L431.51514,-257.96384 L436.36365,-241.86415 L441.21213,-224.7884 L446.0606,-207.16716 L450.9091,-189.44914 L455.75757,-172.0521 L460.60605,-155.32637 L465.45456,-139.53572 L470.30304,-124.85403 L475.15152,-111.37368 L480,-99.12042" fill="none" stroke="darkolivegreen" stroke-linejoin="round" stroke-width="2"/>
</g>
</g>
<g>
<g>
<line stroke="black" stroke-width="1" x1="0" x2="0" y1="0" y2="10"/>
<line stroke="black" stroke-width="1" x1="96.96969696969697" x2="96.96969696969697" y1="0" y2="10"/>
<line stroke="black" stroke-width="1" x1="193.93939393939394" x2="193.93939393939394" y1="0" y2="10"/>
<line stroke="black" stroke-width="1" x1="290.9090909090909" x2="290.9090909090909" y1="0" y2="10"/>
<line stroke="black" stroke-width="1" x1="387.8787878787879" x2="387.8787878787879" y1="0" y2="10"/>
</g>
<line stroke="black" stroke-width="1" x1="0" x2="480" y1="0" y2="0"/>
<g>
<text font-size="12" text-anchor="middle" x="0" y="20">
0
</text>
<text font-size="12" text-anchor="middle" x="96.96969696969697" y="20">
2
</text>
<text font-size="12" text-anchor="middle" x="193.93939393939394" y="20">
4
</text>
<text font-size="12" text-anchor="middle" x="290.9090909090909" y="20">
6
</text>
<text font-size="12" text-anchor="middle" x="387.8787878787879" y="20">
8
</text>
</g>
<text font-size="12" text-anchor="middle" x="240" y="30">

</text>
</g>
<g>
<g>
<line stroke="black" stroke-width="1" x1="0" x2="-10" y1="-33.944700549555144" y2="-33.944700549555144"/>
<line stroke="black" stroke-width="1" x1="0" x2="-10" y1="-101.86016163826126" y2="-101.86016163826126"/>
<line stroke="black" stroke-width="1" x1="0" x2="-10" y1="-169.77562272696736" y2="-169.77562272696736"/>
<line stroke="black" stroke-width="1" x1="0" x2="-10" y1="-237.69108381567352" y2="-237.69108381567352"/>
<line stroke="black" stroke-width="1" x1="0" x2="-10" y1="-305.6065449043796" y2="-305.6065449043796"/>
</g>
<line stroke="black" stroke-width="1" x1="0" x2="0" y1="0" y2="-340"/>
<g>
<text dominant-baseline="middle" font-size="12" text-anchor="end" x="-15" y="-33.944700549555144">
-0.8
</text>
<text dominant-baseline="middle" font-size="12" text-anchor="end" x="-15" y="-101.86016163826126">
-0.4
</text>
<text dominant-baseline="middle" font-size="12" text-anchor="end" x="-15" y="-169.77562272696736">
0
</text>
<text dominant-baseline="middle" font-size="12" text-anchor="end" x="-15" y="-237.69108381567352">
0.4
</text>
<text dominant-baseline="middle" font-size="12" text-anchor="end" x="-15" y="-305.6065449043796">
0.8
</text>
</g>
<text font-size="12" text-anchor="middle" transform="rotate(-90 -48 -170)" x="-48" y="-182">

</text>
</g>
</g>
</svg>