<svg viewBox="0 0 600 400" xmlns="http://www.w3.org/2000/svg">
<g transform="translate(72, 364)">
<g>
<g>
<path d="M0,-142.23077 L0,-142.23077 L4.848485,-156.43124 L9.69697,-170.48984 L14.545455,-184.26607 L19.39394,-197.6223 L24.242424,-210.42506 L29.09091,-222.54646 L33.939392,-233.86539 L38.78788,-244.2687 L43.636364,-253.65251 L48.484848,-261.92303 L53.333332,-268.99762 L58.18182,-274.80557 L63.030304,-279.2889 L67.878784,-282.4028 L72.72727,-284.11615 L77.57576,-284.4118 L82.42424,-283.28683 L87.27273,-280.7525 L92.121216,-276.8341 L96.969696,-271.57077 L101.818184,-265.01514 L106.666664,-257.23267 L111.51515,-248.30115 L116.36364,-238.3098 L121.21212,-227.35846 L126.06061,-215.55656 L130.90909,-203.022 L135.75757,-189.88005 L140.60606,-176.262 L145.45454,-162.30392 L150.30302,-148.14528 L155.15152,-133.92754 L160,-119.792755 L164.84848,-105.88217 L169.69698,-92.33477 L174.54546,-79.28592 L179.39394,-66.86598 L184.24243,-55.199074 L189.09091,-44.401752 L193.93939,-34.58191 L198.78787,-25.837654 L203.63637,-18.256363 L208.48485,-11.913783 L213.33333,-6.8732867 L218.18182,-3.1852381 L223.0303,-0.8864863 L227.87878,-0 L232.72728,-0.53463656 L237.57576,-2.485054 L242.42424,-5.8317647 L247.27272,-10.541328 L252.12122,-16.56669 L256.9697,-23.847647 L261.81818,-32.311447 L266.66666,-41.873524 L271.51514,-52.43834 L276.36365,-63.90033 L281.21213,-76.14497 L286.0606,-89.04993 L290.9091,-102.48624 L295.75757,-116.31967 L300.60605,-130.412 L305.45456,-144.6224 L310.30304,-158.80893 L315.15152,-172.8298 L320,-186.54494 L324.84848,-199.8173 L329.69696,-212.51428 L334.54544,-224.50902 L339.39395,-235.68166 L344.24243,-245.92056 L349.0909,-255.12343 L353.9394,-263.1983 L358.78787,-270.0645 L363.63635,-275.65347 L368.48486,-279.9093 L373.33334,-282.7895 L378.18182,-284.26526 L383.0303,-284.32187 L387.87878,-282.95877 L392.72726,-280.18954 L397.57574,-276.04187 L402.42426,-270.55722 L407.27274,-263.79037 L412.12122,-255.80893 L416.9697,-246.69266 L421.81818,-236.53264 L426.66666,-225.43037 L431.51514,-213.49683 L436.36365,-200.8512 L441.21213,-187.61986 L446.0606,-173.93501 L450.9091,-159.93338 L455.75757,-145.75487 L460.60605,-131.54115 L465.45456,-117.434235 L470.30304,-103.57508 L475.15152,-90.102165 L480,-77.15009" fill="none" stroke="burlywood" stroke-linejoin="round" stroke-width="2"/>
</g>
</g>
<g>
<g>
<path d="M0,-184.71767 L0,-184.71767 L4.848485,-186.79529 L9.69697,-188.85992 L14.545455,-190.92499 L19.39394,-193.00314 L24.242424,-195.10619 L29.09091,-197.24498 L33.939392,-199.42932 L38.78788,-201.6678 L43.636364,-203.96767 L48.484848,-206.33478 L53.333332,-208.77336 L58.18182,-211.28603 L63.030304,-213.87363 L67.878784,-216.53525 L72.72727,-219.26823 L77.57576,-222.06825 L82.42424,-224.9294 L87.27273,-227.8444 L92.121216,-230.80484 L96.969696,-233.80138 L101.818184,-236.82402 L106.666664,-239.86243 L111.51515,-242.9061 L116.36364,-245.94463 L121.21212,-248.96791 L126.06061,-251.96625 L130.90909,-254.93053 L135.75757,-257.8523 L140.60606,-260.7238 L145.45454,-263.53812 L150.30302,-266.28912 L155.15152,-268.97156 L160,-271.58102 L164.84848,-274.11392 L169.69698,-276.5676 L174.54546,-278.9401 L179.39394,-281.23035 L184.24243,-283.43793 L189.09091,-285.5631 L193.93939,-287.6067 L198.78787,-289.5701 L203.63637,-291.4551 L208.48485,-293.26392 L213.33333,-294.99896 L218.18182,-296.663 L223.0303,-298.25882 L227.87878,-299.7895 L232.72728,-301.25797 L237.57576,-302.6674 L242.42424,-304.02075 L247.27272,-305.32108 L252.12122,-306.57132 L256.9697,-307.7743 L261.81818,-308.93274 L266.66666,-310.04935 L271.51514,-311.1266 L276.36365,-312.1669 L281.21213,-313.17258 L286.0606,-314.14572 L290.9091,-315.0884 L295.75757,-316.00253 L300.60605,-316.88992 L305.45456,-317.75226 L310.30304,-318.59116 L315.15152,-319.40802 L320,-320.2043 L324.84848,-320.98126 L329.69696,-321.74014 L334.54544,-322.482 L339.39395,-323.20792 L344.24243,-323.91882 L349.0909,-324.61566 L353.9394,-325.2992 L358.78787,-325.97025 L363.63635,-326.62946 L368.48486,-327.27756 L373.33334,-327.91507 L378.18182,-328.54254 L383.0303,-329.16055 L387.87878,-329.76947 L392.72726,-330.36978 L397.57574,-330.96185 L402.42426,-331.546 L407.27274,-332.12256 L412.12122,-332.69183 L416.9697,-333.25406 L421.81818,-333.80948 L426.66666,-334.3583 L431.51514,-334.9007 L436.36365,-335.43686 L441.21213,-335.9669 L446.0606,-336.49097 L450.9091,-337.00916 L455.75757,-337.5216 L460.60605,-338.02838 L465.45456,-338.52954 L470.30304,-339.02515 L475.15152,-339.5153 L480,-340" fill="none" stroke="darkolivegreen" stroke-linejoin="round" stroke-width="2"/>
</g>
</g>
<g>
<g>
<line stroke="black" stroke-width="1" x1="0" x2="0" y1="0" y2="10"/>
<line stroke="black" stroke-width="1" x1="96.96969696969697" x2="96.96969696969697" y1="0" y2="10"/>
<line stroke="black" stroke-width="1" x1="193.93939393939394" x2="193.93939393939394" y1="0" y2="10"/>
<line stroke="black" stroke-width="1" x1="290.9090909090909" x2="290.9090909090909" y1="0" y2="10"/>
<line stroke="black" stroke-width="1" x1="387.8787878787879" x2="387.8787878787879" y1="0" y2="10"/>
</g>
<line stroke="black" stroke-width="1" x1="0" x2="480" y1="0" y2="0"/>
<g>
<text font-size="12" text-anchor="middle" x="0" y="20">
0
</text>
<text font-size="12" text-anchor="middle" x="96.96969696969697" y="20">
2
</text>
<text font-size="12" text-anchor="middle" x="193.93939393939394" y="20">
4
</text>
<text font-size="12" text-anchor="middle" x="290.9090909090909" y="20">
6
</text>
<text font-size="12" text-anchor="middle" x="387.8787878787879" y="20">
8
</text>
</g>
<text font-size="12" text-anchor="middle" x="240" y="30">

</text>
</g>
<g>
<g>
<line stroke="black" stroke-width="1" x1="0" x2="-10" y1="-28.437421590814882" y2="-28.437421590814882"/>
<line stroke="black" stroke-width="1" x1="0" x2="-10" y1="-85.33409671966442" y2="-85.33409671966442"/>
<line stroke="black" stroke-width="1" x1="0" x2="-10" y1="-142.23077184851394" y2="-142.23077184851394"/>
<line stroke="black" stroke-width="1" x1="0" x2="-10" y1="-199.1274469773635" y2="-199.1274469773635"/>
<line stroke="black" stroke-width="1" x1="0" x2="-10" y1="-256.024122106213" y2="-256.024122106213"/>
<line stroke="black" stroke-width="1" x1="0" x2="-10" y1="-312.92079723506254" y2="-312.92079723506254"/>
</g>
<line stroke="black" stroke-width="1" x1="0" x2="0" y1="0" y2="-340"/>
<g>
<text dominant-baseline="middle" font-size="12" text-anchor="end" x="-15" y="-28.437421590814882">
-0.8
</text>
<text dominant-baseline="middle" font-size="12" text-anchor="end" x="-15" y="-85.33409671966442">
-0.4
</text>
<text dominant-baseline="middle" font-size="12" text-anchor="end" x="-15" y="-142.23077184851394">
0
</text>
<text dominant-baseline="middle" font-size="12" text-anchor="end" x="-15" y="-199.1274469773635">
0.4
</text>
<text dominant-baseline="middle" font-size="12" text-anchor="end" x="-15" y="-256.024122106213">
0.8
</text>
<text dominant-baseline="middle" font-size="12" text-anchor="end" x="-15" y="-312.92079723506254">
1.2
</text>
</g>
<text font-size="12" text-anchor="middle" transform="rotate(-90 -48 -170)" x="-48" y="-182">

</text>
</g>
</g>
</svg>