<svg viewBox="0 0 600 400" xmlns="http://www.w3.org/2000/svg">
<g transform="translate(72, 364)">
<g>
<g>
<path d="M0,-113.333336 L0,-113.333336 L0.96,-114.466644 L1.92,-115.599846 L2.88,-116.73283 L3.84,-117.865456 L4.8,-118.99764 L5.76,-120.12926 L6.72,-121.26019 L7.68,-122.390335 L8.64,-123.51957 L9.6,-124.64779 L10.56,-125.77487 L11.52,-126.90072 L12.48,-128.0252 L13.44,-129.14822 L14.4,-130.26965 L15.36,-131.3894 L16.32,-132.50734 L17.28,-133.62335 L18.24,-134.73734 L19.2,-135.8492 L20.16,-136.95879 L21.12,-138.06602 L22.08,-139.17079 L23.04,-140.27296 L24,-141.37245 L24.96,-142.46913 L25.92,-143.5629 L26.88,-144.65364 L27.84,-145.74126 L28.8,-146.82562 L29.76,-147.90665 L30.72,-148.9842 L31.68,-150.05821 L32.64,-151.12854 L33.6,-152.19508 L34.56,-153.25775 L35.52,-154.31642 L36.48,-155.37099 L37.44,-156.42136 L38.4,-157.4674 L39.36,-158.50906 L40.32,-159.54619 L41.28,-160.57869 L42.24,-161.60648 L43.2,-162.62943 L44.16,-163.64745 L45.12,-164.66045 L46.08,-165.6683 L47.04,-166.67093 L48,-167.66823 L48.96,-168.6601 L49.92,-169.64641 L50.88,-170.6271 L51.84,-171.60208 L52.8,-172.57121 L53.76,-173.53444 L54.72,-174.49164 L55.68,-175.44272 L56.64,-176.38759 L57.6,-177.32614 L58.56,-178.25832 L59.52,-179.18399 L60.48,-180.10307 L61.44,-181.01549 L62.4,-181.92113 L63.36,-182.81992 L64.32,-183.71175 L65.28,-184.59654 L66.24,-185.47421 L67.2,-186.34467 L68.16,-187.20782 L69.12,-188.0636 L70.08,-188.9119 L71.04,-189.75262 L72,-190.58572 L72.96,-191.4111 L73.92,-192.22865 L74.88,-193.03833 L75.84,-193.84004 L76.8,-194.6337 L77.76,-195.41922 L78.72,-196.19653 L79.68,-196.96556 L80.64,-197.72623 L81.6,-198.47844 L82.56,-199.22215 L83.52,-199.95728 L84.48,-200.68375 L85.44,-201.40146 L86.4,-202.11038 L87.36,-202.81042 L88.32,-203.50151 L89.28,-204.1836 L90.24,-204.85658 L91.2,-205.52042 L92.16,-206.17505 L93.12,-206.82037 L94.08,-207.45638 L95.04,-208.08295 L96,-208.70004 L96.96,-209.3076 L97.92,-209.90558 L98.88,-210.49388 L99.84,-211.07248 L100.8,-211.6413 L101.76,-212.20029 L102.72,-212.74939 L103.68,-213.28856 L104.64,-213.81772 L105.6,-214.33684 L106.56,-214.84586 L107.52,-215.34471 L108.48,-215.83337 L109.44,-216.3118 L110.4,-216.7799 L111.36,-217.23769 L112.32,-217.68507 L113.28,-218.12201 L114.24,-218.54848 L115.2,-218.96443 L116.16,-219.36981 L117.12,-219.76459 L118.08,-220.14873 L119.04,-220.52219 L120,-220.88492 L120.96,-221.23691 L121.92,-221.5781 L122.88,-221.90846 L123.84,-222.22798 L124.8,-222.53659 L125.76,-222.83429 L126.72,-223.12105 L127.68,-223.39682 L128.64,-223.66158 L129.6,-223.91531 L130.56,-224.15799 L131.52,-224.38959 L132.48,-224.61006 L133.44,-224.81943 L134.4,-225.01764 L135.36,-225.20468 L136.32,-225.38054 L137.28,-225.54518 L138.24,-225.69861 L139.2,-225.8408 L140.16,-225.97174 L141.12,-226.09143 L142.08,-226.19983 L143.04,-226.29695 L144,-226.38277 L144.96,-226.45728 L145.92,-226.52048 L146.88,-226.57237 L147.84,-226.61293 L148.8,-226.64217 L149.76,-226.66006 L150.72,-226.66663 L151.68,-226.66187 L152.64,-226.64577 L153.6,-226.61835 L154.56,-226.57959 L155.52,-226.52951 L156.48,-226.46811 L157.44,-226.39539 L158.4,-226.31137 L159.36,-226.21605 L160.32,-226.10945 L161.28,-225.99156 L162.24,-225.86241 L163.2,-225.72202 L164.16,-225.57037 L165.12,-225.4075 L166.08,-225.23343 L167.04,-225.04817 L168,-224.85175 L168.96,-224.64415 L169.92,-224.42545 L170.88,-224.19562 L171.84,-223.95471 L172.8,-223.70273 L173.76,-223.43973 L174.72,-223.1657 L175.68,-222.88069 L176.64,-222.58473 L177.6,-222.27786 L178.56,-221.96008 L179.52,-221.63144 L180.48,-221.29196 L181.44,-220.9417 L182.4,-220.58067 L183.36,-220.20892 L184.32,-219.82649 L185.28,-219.4334 L186.24,-219.02971 L187.2,-218.61543 L188.16,-218.19064 L189.12,-217.75536 L190.08,-217.30963 L191.04,-216.85352 L192,-216.38704 L192.96,-215.91026 L193.92,-215.42323 L194.88,-214.92598 L195.84,-214.41858 L196.8,-213.90106 L197.76,-213.3735 L198.72,-212.83592 L199.68,-212.2884 L200.64,-211.73099 L201.6,-211.16373 L202.56,-210.58669 L203.52,-209.99992 L204.48,-209.40349 L205.44,-208.79745 L206.4,-208.18187 L207.36,-207.5568 L208.32,-206.9223 L209.28,-206.27844 L210.24,-205.6253 L211.2,-204.96292 L212.16,-204.29138 L213.12,-203.61075 L214.08,-202.9211 L215.04,-202.22247 L216,-201.51497 L216.96,-200.79863 L217.92,-200.07356 L218.88,-199.33981 L219.84,-198.59746 L220.8,-197.84659 L221.76,-197.08727 L222.72,-196.31956 L223.68,-195.54356 L224.64,-194.75934 L225.6,-193.96698 L226.56,-193.16655 L227.52,-192.35814 L228.48,-191.54182 L229.44,-190.7177 L230.4,-189.88583 L231.36,-189.0463 L232.32,-188.1992 L233.28,-187.34462 L234.24,-186.48264 L235.2,-185.61333 L236.16,-184.7368 L237.12,-183.85313 L238.08,-182.96242 L239.04,-182.06473 L240,-181.16017 L240.96,-180.24884 L241.92,-179.33081 L242.88,-178.40617 L243.84,-177.47504 L244.8,-176.53749 L245.76,-175.59361 L246.72,-174.64352 L247.68,-173.68729 L248.64,-172.72502 L249.6,-171.75682 L250.56,-170.78278 L251.52,-169.80298 L252.48,-168.81755 L253.44,-167.82657 L254.4,-166.83012 L255.36,-165.82834 L256.32,-164.8213 L257.28,-163.80913 L258.24,-162.7919 L259.2,-161.76971 L260.16,-160.7427 L261.12,-159.71094 L262.08,-158.67455 L263.04,-157.6336 L264,-156.58824 L264.96,-155.53856 L265.92,-154.48465 L266.88,-153.42662 L267.84,-152.3646 L268.8,-151.29866 L269.76,-150.22893 L270.72,-149.1555 L271.68,-148.07849 L272.64,-146.99802 L273.6,-145.91417 L274.56,-144.82707 L275.52,-143.73682 L276.48,-142.64352 L277.44,-141.5473 L278.4,-140.44826 L279.36,-139.3465 L280.32,-138.24214 L281.28,-137.1353 L282.24,-136.02606 L283.2,-134.91457 L284.16,-133.8009 L285.12,-132.68521 L286.08,-131.56757 L287.04,-130.4481 L288,-129.32693 L288.96,-128.20416 L289.92,-127.0799 L290.88,-125.95427 L291.84,-124.82737 L292.8,-123.699326 L293.76,-122.570244 L294.72,-121.44024 L295.68,-120.30942 L296.64,-119.17791 L297.6,-118.04581 L298.56,-116.91324 L299.52,-115.78031 L300.48,-114.64714 L301.44,-113.51383 L302.4,-112.38051 L303.36,-111.247284 L304.32,-110.114265 L305.28,-108.98157 L306.24,-107.84931 L307.2,-106.7176 L308.16,-105.58655 L309.12,-104.45627 L310.08,-103.32688 L311.04,-102.198494 L312,-101.07122 L312.96,-99.94517 L313.92,-98.82046 L314.88,-97.697205 L315.84,-96.57551 L316.8,-95.45549 L317.76,-94.33726 L318.72,-93.220924 L319.68,-92.106606 L320.64,-90.99441 L321.6,-89.884445 L322.56,-88.776825 L323.52,-87.67166 L324.48,-86.56906 L325.44,-85.46914 L326.4,-84.37201 L327.36,-83.27777 L328.32,-82.18654 L329.28,-81.09842 L330.24,-80.01353 L331.2,-78.93196 L332.16,-77.853836 L333.12,-76.77927 L334.08,-75.70834 L335.04,-74.64119 L336,-73.5779 L336.96,-72.518585 L337.92,-71.463356 L338.88,-70.412315 L339.84,-69.36556 L340.8,-68.323204 L341.76,-67.285355 L342.72,-66.252106 L343.68,-65.223564 L344.64,-64.19984 L345.6,-63.181015 L346.56,-62.167213 L347.52,-61.15853 L348.48,-60.155064 L349.44,-59.156914 L350.4,-58.16418 L351.36,-57.176964 L352.32,-56.195366 L353.28,-55.21948 L354.24,-54.249405 L355.2,-53.285236 L356.16,-52.327076 L357.12,-51.375015 L358.08,-50.42915 L359.04,-49.489574 L360,-48.556385 L360.96,-47.62967 L361.92,-46.70953 L362.88,-45.796047 L363.84,-44.88932 L364.8,-43.98944 L365.76,-43.096493 L366.72,-42.210567 L367.68,-41.331753 L368.64,-40.460144 L369.6,-39.595818 L370.56,-38.738865 L371.52,-37.889374 L372.48,-37.04743 L373.44,-36.213108 L374.4,-35.3865 L375.36,-34.567688 L376.32,-33.756756 L377.28,-32.953777 L378.24,-32.158836 L379.2,-31.372013 L380.16,-30.593386 L381.12,-29.823032 L382.08,-29.061031 L383.04,-28.307457 L384,-27.562384 L384.96,-26.825888 L385.92,-26.098043 L386.88,-25.378923 L387.84,-24.668596 L388.8,-23.967138 L389.76,-23.274614 L390.72,-22.591099 L391.68,-21.916655 L392.64,-21.251354 L393.6,-20.59526 L394.56,-19.94844 L395.52,-19.31096 L396.48,-18.682882 L397.44,-18.064268 L398.4,-17.455181 L399.36,-16.85568 L400.32,-16.26583 L401.28,-15.685684 L402.24,-15.115304 L403.2,-14.554746 L404.16,-14.004065 L405.12,-13.463317 L406.08,-12.932556 L407.04,-12.411835 L408,-11.901206 L408.96,-11.400721 L409.92,-10.910428 L410.88,-10.430377 L411.84,-9.960617 L412.8,-9.501194 L413.76,-9.052154 L414.72,-8.613542 L415.68,-8.185402 L416.64,-7.7677765 L417.6,-7.3607078 L418.56,-6.9642363 L419.52,-6.5784016 L420.48,-6.203242 L421.44,-5.8387957 L422.4,-5.4850984 L423.36,-5.1421857 L424.32,-4.8100924 L425.28,-4.4888515 L426.24,-4.1784945 L427.2,-3.879053 L428.16,-3.590557 L429.12,-3.3130352 L430.08,-3.0465152 L431.04,-2.791024 L432,-2.5465868 L432.96,-2.3132281 L433.92,-2.0909712 L434.88,-1.8798387 L435.84,-1.6798514 L436.8,-1.4910294 L437.76,-1.3133914 L438.72,-1.1469554 L439.68,-0.99173796 L440.64,-0.84775454 L441.6,-0.7150196 L442.56,-0.5935464 L443.52,-0.48334706 L444.48,-0.38443264 L445.44,-0.296813 L446.4,-0.22049694 L447.36,-0.15549207 L448.32,-0.101804875 L449.28,-0.059440747 L450.24,-0.028403912 L451.2,-0.008697476 L452.16,-0.0003234094 L453.12,-0.0032825493 L454.08,-0.017574599 L455.04,-0.04319813 L456,-0.08015058 L456.96,-0.12842825 L457.92,-0.18802632 L458.88,-0.25893885 L459.84,-0.3411587 L460.8,-0.43467766 L461.76,-0.5394864 L462.72,-0.65557444 L463.68,-0.7829302 L464.64,-0.92154086 L465.6,-1.0713925 L466.56,-1.2324704 L467.52,-1.4047583 L468.48,-1.588239 L469.44,-1.7828939 L470.4,-1.9887038 L471.36,-2.2056482 L472.32,-2.4337053 L473.28,-2.6728523 L474.24,-2.923065 L475.2,-3.1843188 L476.16,-3.4565873 L477.12,-3.7398436 L478.08,-4.034059 L479.04,-4.3392043" fill="none" stroke="red" stroke-linejoin="round" stroke-width="2"/>
</g>
</g>
<g>
<g>
<path d="M0,-310.4684 L0,-310.4684 L0.96,-310.52933 L1.92,-310.59024 L2.88,-310.65118 L3.84,-310.7121 L4.8,-310.77298 L5.76,-310.83386 L6.72,-310.89474 L7.68,-310.9556 L8.64,-311.01642 L9.6,-311.0772 L10.56,-311.13797 L11.52,-311.19867 L12.48,-311.25937 L13.44,-311.32 L14.4,-311.38058 L15.36,-311.44113 L16.32,-311.48502 L17.28,-311.52185 L18.24,-311.55862 L19.2,-311.5953 L20.16,-311.6319 L21.12,-311.66837 L22.08,-311.70474 L23.04,-311.741 L24,-311.77618 L24.96,-311.8108 L25.92,-311.84528 L26.88,-311.8796 L27.84,-311.91376 L28.8,-311.94772 L29.76,-311.9815 L30.72,-312.01508 L31.68,-312.04843 L32.64,-312.08157 L33.6,-312.11447 L34.56,-312.1471 L35.52,-312.17947 L36.48,-312.21158 L37.44,-312.24338 L38.4,-312.2749 L39.36,-312.3061 L40.32,-312.33694 L41.28,-312.3675 L42.24,-312.39767 L43.2,-312.42746 L44.16,-312.4569 L45.12,-312.48596 L46.08,-312.5146 L47.04,-312.54282 L48,-312.57062 L48.96,-312.598 L49.92,-312.6249 L50.88,-312.65137 L51.84,-312.67734 L52.8,-312.70282 L53.76,-312.7278 L54.72,-312.75226 L55.68,-312.7762 L56.64,-312.79962 L57.6,-312.82248 L58.56,-312.84476 L59.52,-312.8665 L60.48,-312.8876 L61.44,-312.90814 L62.4,-312.92807 L63.36,-312.94736 L64.32,-312.966 L65.28,-312.984 L66.24,-313.00137 L67.2,-313.01807 L68.16,-313.03406 L69.12,-313.04935 L70.08,-313.06393 L71.04,-313.07782 L72,-313.09094 L72.96,-313.10336 L73.92,-313.115 L74.88,-313.1259 L75.84,-313.136 L76.8,-313.1453 L77.76,-313.1538 L78.72,-313.16153 L79.68,-313.1684 L80.64,-313.17444 L81.6,-313.17966 L82.56,-313.18402 L83.52,-313.1875 L84.48,-313.19012 L85.44,-313.19183 L86.4,-313.19266 L87.36,-313.19257 L88.32,-313.1916 L89.28,-313.18964 L90.24,-313.18677 L91.2,-313.18295 L92.16,-313.1782 L93.12,-313.17242 L94.08,-313.1657 L95.04,-313.158 L96,-313.14926 L96.96,-313.13956 L97.92,-313.1288 L98.88,-313.11703 L99.84,-313.10422 L100.8,-313.09036 L101.76,-313.07544 L102.72,-313.05948 L103.68,-313.04242 L104.64,-313.02426 L105.6,-313.00504 L106.56,-312.9847 L107.52,-312.96326 L108.48,-312.9407 L109.44,-312.917 L110.4,-312.89218 L111.36,-312.86618 L112.32,-312.83905 L113.28,-312.81076 L114.24,-312.7813 L115.2,-312.75067 L116.16,-312.71884 L117.12,-312.68582 L118.08,-312.6516 L119.04,-312.61618 L120,-312.57953 L120.96,-312.54166 L121.92,-312.50256 L122.88,-312.46222 L123.84,-312.42062 L124.8,-312.37778 L125.76,-312.33365 L126.72,-312.2883 L127.68,-312.24164 L128.64,-312.1937 L129.6,-312.14447 L130.56,-312.09393 L131.52,-312.0421 L132.48,-311.98898 L133.44,-311.93454 L134.4,-311.87875 L135.36,-311.82166 L136.32,-311.7632 L137.28,-311.70343 L138.24,-311.6423 L139.2,-311.57983 L140.16,-311.516 L141.12,-311.45078 L142.08,-311.3842 L143.04,-311.31622 L144,-311.2469 L144.96,-311.17618 L145.92,-311.10403 L146.88,-311.03052 L147.84,-310.9556 L148.8,-310.87927 L149.76,-310.8015 L150.72,-310.72076 L151.68,-310.61124 L152.64,-310.49957 L153.6,-310.38583 L154.56,-310.26996 L155.52,-310.15198 L156.48,-310.03186 L157.44,-309.90964 L158.4,-309.78525 L159.36,-309.69336 L160.32,-309.59985 L161.28,-309.50433 L162.24,-309.40674 L163.2,-309.3071 L164.16,-309.20538 L165.12,-309.10162 L166.08,-308.99582 L167.04,-308.88797 L168,-308.77805 L168.96,-308.6661 L169.92,-308.5521 L170.88,-308.43604 L171.84,-308.31793 L172.8,-308.19778 L173.76,-308.0756 L174.72,-307.95135 L175.68,-307.82507 L176.64,-307.69678 L177.6,-307.5664 L178.56,-307.43405 L179.52,-307.299 L180.48,-307.1616 L181.44,-307.02225 L182.4,-306.88092 L183.36,-306.7377 L184.32,-306.59253 L185.28,-306.4454 L186.24,-306.2964 L187.2,-306.14545 L188.16,-305.99258 L189.12,-305.83783 L190.08,-305.68115 L191.04,-305.52258 L192,-305.36212 L192.96,-305.1998 L193.92,-305.03555 L194.88,-304.86945 L195.84,-304.70148 L196.8,-304.53165 L197.76,-304.35992 L198.72,-304.1864 L199.68,-304.011 L200.64,-303.83377 L201.6,-303.6547 L202.56,-303.47382 L203.52,-303.2911 L204.48,-303.1066 L205.44,-302.9203 L206.4,-302.73218 L207.36,-302.54227 L208.32,-302.35062 L209.28,-302.15717 L210.24,-301.96194 L211.2,-301.76498 L212.16,-301.56628 L213.12,-301.36584 L214.08,-301.16367 L215.04,-300.95975 L216,-300.75415 L216.96,-300.54684 L217.92,-300.33786 L218.88,-300.12717 L219.84,-299.91483 L220.8,-299.7008 L221.76,-299.48514 L222.72,-299.26785 L223.68,-299.0489 L224.64,-298.82834 L225.6,-298.60617 L226.56,-298.38242 L227.52,-298.15704 L228.48,-297.9301 L229.44,-297.70163 L230.4,-297.4716 L231.36,-297.24 L232.32,-297.00687 L233.28,-296.77225 L234.24,-296.5361 L235.2,-296.29846 L236.16,-296.05936 L237.12,-295.81876 L238.08,-295.57034 L239.04,-295.31622 L240,-295.06085 L240.96,-294.80426 L241.92,-294.54648 L242.88,-294.28748 L243.84,-294.02728 L244.8,-293.7659 L245.76,-293.5034 L246.72,-293.23972 L247.68,-292.97488 L248.64,-292.70895 L249.6,-292.4419 L250.56,-292.16876 L251.52,-291.87866 L252.48,-291.5871 L253.44,-291.29407 L254.4,-290.99957 L255.36,-290.70364 L256.32,-290.40634 L257.28,-290.10764 L258.24,-289.80756 L259.2,-289.60107 L260.16,-289.39624 L261.12,-289.19055 L262.08,-288.98398 L263.04,-288.77655 L264,-288.56827 L264.96,-288.3592 L265.92,-288.14932 L266.88,-287.9387 L267.84,-287.72726 L268.8,-287.5151 L269.76,-287.30222 L270.72,-287.08865 L271.68,-286.87436 L272.64,-286.65942 L273.6,-286.44385 L274.56,-286.22763 L275.52,-285.99255 L276.48,-285.74966 L277.44,-285.50613 L278.4,-285.26196 L279.36,-285.01718 L280.32,-284.77182 L281.28,-284.52588 L282.24,-284.27942 L283.2,-284.0324 L284.16,-283.7849 L285.12,-283.53693 L286.08,-283.28845 L287.04,-283.03958 L288,-282.79028 L288.96,-282.5406 L289.92,-282.2905 L290.88,-282.04007 L291.84,-281.7893 L292.8,-281.53824 L293.76,-281.2869 L294.72,-281.03528 L295.68,-280.78342 L296.64,-280.53134 L297.6,-280.27905 L298.56,-280.0266 L299.52,-279.774 L300.48,-279.52127 L301.44,-279.2684 L302.4,-279.01547 L303.36,-278.76248 L304.32,-278.50943 L305.28,-278.25638 L306.24,-278.00333 L307.2,-277.7503 L308.16,-277.4973 L309.12,-277.2444 L310.08,-276.99158 L311.04,-276.73886 L312,-276.49246 L312.96,-276.25558 L313.92,-276.01883 L314.88,-275.7822 L315.84,-275.54575 L316.8,-275.27606 L317.76,-274.9969 L318.72,-274.71774 L319.68,-274.4387 L320.64,-274.15973 L321.6,-273.88086 L322.56,-273.6021 L323.52,-273.3235 L324.48,-273.045 L325.44,-272.7667 L326.4,-272.48856 L327.36,-272.21057 L328.32,-271.9328 L329.28,-271.65524 L330.24,-271.37793 L331.2,-271.10083 L332.16,-270.82397 L333.12,-270.5474 L334.08,-270.27106 L335.04,-269.99506 L336,-269.71933 L336.96,-269.4439 L337.92,-269.16885 L338.88,-268.8941 L339.84,-268.61972 L340.8,-268.3457 L341.76,-268.07208 L342.72,-267.79883 L343.68,-267.52713 L344.64,-267.30194 L345.6,-267.07727 L346.56,-266.85312 L347.52,-266.62955 L348.48,-266.4065 L349.44,-266.18405 L350.4,-265.96216 L351.36,-265.74084 L352.32,-265.5201 L353.28,-265.30002 L354.24,-265.0805 L355.2,-264.8616 L356.16,-264.64334 L357.12,-264.4257 L358.08,-264.2087 L359.04,-263.99237 L360,-263.77667 L360.96,-263.56165 L361.92,-263.3473 L362.88,-263.1336 L363.84,-262.92062 L364.8,-262.7083 L365.76,-262.49673 L366.72,-262.28583 L367.68,-262.07568 L368.64,-261.86624 L369.6,-261.65753 L370.56,-261.44955 L371.52,-261.2423 L372.48,-261.03583 L373.44,-260.8301 L374.4,-260.62515 L375.36,-260.421 L376.32,-260.2176 L377.28,-260.01498 L378.24,-259.81314 L379.2,-259.61212 L380.16,-259.4119 L381.12,-259.2125 L382.08,-259.01392 L383.04,-258.81613 L384,-258.6192 L384.96,-258.4231 L385.92,-258.22342 L386.88,-258.01193 L387.84,-257.80118 L388.8,-257.59116 L389.76,-257.38187 L390.72,-257.17334 L391.68,-256.96555 L392.64,-256.7585 L393.6,-256.55225 L394.56,-256.34674 L395.52,-256.142 L396.48,-255.93802 L397.44,-255.73483 L398.4,-255.53244 L399.36,-255.33083 L400.32,-255.12999 L401.28,-254.92996 L402.24,-254.73074 L403.2,-254.53232 L404.16,-254.3347 L405.12,-254.13791 L406.08,-253.94193 L407.04,-253.74675 L408,-253.55241 L408.96,-253.3589 L409.92,-253.16623 L410.88,-252.97438 L411.84,-252.78337 L412.8,-252.59322 L413.76,-252.39696 L414.72,-252.17662 L415.68,-251.95718 L416.64,-251.7387 L417.6,-251.52112 L418.56,-251.30447 L419.52,-251.08878 L420.48,-250.87402 L421.44,-250.66022 L422.4,-250.44736 L423.36,-250.23546 L424.32,-250.02452 L425.28,-249.81454 L426.24,-249.60555 L427.2,-249.3975 L428.16,-249.19044 L429.12,-248.98438 L430.08,-248.77928 L431.04,-248.57518 L432,-248.37207 L432.96,-248.16997 L433.92,-247.96884 L434.88,-247.76874 L435.84,-247.56963 L436.8,-247.37152 L437.76,-247.17442 L438.72,-246.97835 L439.68,-246.7833 L440.64,-246.58925 L441.6,-246.39624 L442.56,-246.20424 L443.52,-246.01328 L444.48,-245.82333 L445.44,-245.63443 L446.4,-245.44656 L447.36,-245.25974 L448.32,-245.07393 L449.28,-244.88918 L450.24,-244.70546 L451.2,-244.5228 L452.16,-244.34117 L453.12,-244.16058 L454.08,-243.98106 L455.04,-243.80258 L456,-243.62515 L456.96,-243.44878 L457.92,-243.27345 L458.88,-243.09918 L459.84,-242.92598 L460.8,-242.75383 L461.76,-242.58273 L462.72,-242.41269 L463.68,-242.24371 L464.64,-242.0758 L465.6,-241.90895 L466.56,-241.74315 L467.52,-241.57843 L468.48,-241.41475 L469.44,-241.25215 L470.4,-241.0906 L471.36,-240.93011 L472.32,-240.7707 L473.28,-240.61235 L474.24,-240.45505 L475.2,-240.29883 L476.16,-240.14366 L477.12,-239.98955 L478.08,-239.83652 L479.04,-239.68454" fill="none" stroke="blue" stroke-linejoin="round" stroke-width="2"/>
</g>
</g>
<g>
<g>
<line stroke="black" stroke-width="1" x1="0" x2="0" y1="0" y2="10"/>
<line stroke="black" stroke-width="1" x1="96" x2="96" y1="0" y2="10"/>
<line stroke="black" stroke-width="1" x1="192" x2="192" y1="0" y2="10"/>
<line stroke="black" stroke-width="1" x1="288" x2="288" y1="0" y2="10"/>
<line stroke="black" stroke-width="1" x1="384" x2="384" y1="0" y2="10"/>
<line stroke="black" stroke-width="1" x1="480" x2="480" y1="0" y2="10"/>
</g>
<line stroke="black" stroke-width="1" x1="0" x2="480" y1="0" y2="0"/>
<g>
<text font-size="12" text-anchor="middle" x="0" y="20">
0
</text>
<text font-size="12" text-anchor="middle" x="96" y="20">
1
</text>
<text font-size="12" text-anchor="middle" x="192" y="20">
2
</text>
<text font-size="12" text-anchor="middle" x="288" y="20">
3
</text>
<text font-size="12" text-anchor="middle" x="384" y="20">
4
</text>
<text font-size="12" text-anchor="middle" x="480" y="20">
5
</text>
</g>
<text font-size="12" text-anchor="middle" x="240" y="30">

</text>
</g>
<g>
<g>
<line stroke="black" stroke-width="1" x1="0" x2="-10" y1="-0" y2="-0"/>
<line stroke="black" stroke-width="1" x1="0" x2="-10" y1="-113.33333333333333" y2="-113.33333333333333"/>
<line stroke="black" stroke-width="1" x1="0" x2="-10" y1="-226.66666666666666" y2="-226.66666666666666"/>
<line stroke="black" stroke-width="1" x1="0" x2="-10" y1="-340" y2="-340"/>
</g>
<line stroke="black" stroke-width="1" x1="0" x2="0" y1="0" y2="-340"/>
<g>
<text dominant-baseline="middle" font-size="12" text-anchor="end" x="-15" y="-0">
-1
</text>
<text dominant-baseline="middle" font-size="12" text-anchor="end" x="-15" y="-113.33333333333333">
0
</text>
<text dominant-baseline="middle" font-size="12" text-anchor="end" x="-15" y="-226.66666666666666">
1
</text>
<text dominant-baseline="middle" font-size="12" text-anchor="end" x="-15" y="-340">
2
</text>
</g>
<text font-size="12" text-anchor="middle" transform="rotate(-90 -24 -170)" x="-24" y="-182">

</text>
</g>
</g>
</svg>