<svg viewBox="0 0 600 400" xmlns="http://www.w3.org/2000/svg">
<g transform="translate(72, 364)">
<g>
<g>
<path d="M0,-0 L0,-0 L4.848485,-0.03469034 L9.69697,-0.13876136 L14.545455,-0.31221303 L19.39394,-0.5550454 L24.242424,-0.8672584 L29.09091,-1.2488521 L33.939392,-1.6998266 L38.78788,-2.2201817 L43.636364,-2.8099174 L48.484848,-3.4690337 L53.333332,-4.1975307 L58.18182,-4.9954085 L63.030304,-5.862667 L67.878784,-6.7993064 L72.72727,-7.805326 L77.57576,-8.880727 L82.42424,-10.025508 L87.27273,-11.23967 L92.121216,-12.5232115 L96.969696,-13.876135 L101.818184,-15.298439 L106.666664,-16.790123 L111.51515,-18.351189 L116.36364,-19.981634 L121.21212,-21.681461 L126.06061,-23.450668 L130.90909,-25.289257 L135.75757,-27.197226 L140.60606,-29.174574 L145.45454,-31.221304 L150.30302,-33.337414 L155.15152,-35.522907 L160,-37.77778 L164.84848,-40.10203 L169.69698,-42.495663 L174.54546,-44.95868 L179.39394,-47.491074 L184.24243,-50.092846 L189.09091,-52.764004 L193.93939,-55.50454 L198.78787,-58.314457 L203.63637,-61.193756 L208.48485,-64.14243 L213.33333,-67.16049 L218.18182,-70.24793 L223.0303,-73.404755 L227.87878,-76.63096 L232.72728,-79.92654 L237.57576,-83.291504 L242.42424,-86.725845 L247.27272,-90.22957 L252.12122,-93.80267 L256.9697,-97.44516 L261.81818,-101.15703 L266.66666,-104.93827 L271.51514,-108.7889 L276.36365,-112.70891 L281.21213,-116.698296 L286.0606,-120.757065 L290.9091,-124.885216 L295.75757,-129.08275 L300.60605,-133.34966 L305.45456,-137.68594 L310.30304,-142.09163 L315.15152,-146.56668 L320,-151.11111 L324.84848,-155.72493 L329.69696,-160.40813 L334.54544,-165.16069 L339.39395,-169.98265 L344.24243,-174.874 L349.0909,-179.83472 L353.9394,-184.8648 L358.78787,-189.9643 L363.63635,-195.13315 L368.48486,-200.37138 L373.33334,-205.67902 L378.18182,-211.05602 L383.0303,-216.5024 L387.87878,-222.01816 L392.72726,-227.6033 L397.57574,-233.25783 L402.42426,-238.98174 L407.27274,-244.77502 L412.12122,-250.6377 L416.9697,-256.56973 L421.81818,-262.57117 L426.66666,-268.64197 L431.51514,-274.78217 L436.36365,-280.99173 L441.21213,-287.2707 L446.0606,-293.61902 L450.9091,-300.03674 L455.75757,-306.52383 L460.60605,-313.0803 L465.45456,-319.70615 L470.30304,-326.4014 L475.15152,-333.16602 L480,-340" fill="none" stroke="burlywood" stroke-linejoin="round" stroke-width="2"/>
</g>
</g>
<g>
<g>
<path d="M0,-0.010361835 L0,-0.010361835 L0.048484847,-0.010412743 L0.096969694,-0.010463589 L0.14545454,-0.010514377 L0.19393939,-0.010565109 L0.24242425,-0.010615788 L0.29090908,-0.01066642 L0.33939394,-0.010717006 L0.38787878,-0.010767551 L0.43636364,-0.010818057 L0.4848485,-0.010868529 L0.53333336,-0.010918969 L0.58181816,-0.010969381 L0.630303,-0.011019768 L0.6787879,-0.011070133 L0.72727275,-0.0111204805 L0.77575755,-0.011170813 L0.8242424,-0.011221134 L0.8727273,-0.011271446 L0.92121214,-0.011321753 L0.969697,-0.011372059 L1.0181818,-0.011422365 L1.0666667,-0.011472676 L1.1151515,-0.011522993 L1.1636363,-0.011573323 L1.2121212,-0.011623666 L1.260606,-0.011674025 L1.3090909,-0.011724404 L1.3575758,-0.011774807 L1.4060606,-0.011825236 L1.4545455,-0.011875694 L1.5030303,-0.0119261835 L1.5515151,-0.011976708 L1.6,-0.012027271 L1.6484848,-0.0120778745 L1.6969697,-0.012128523 L1.7454545,-0.012179216 L1.7939394,-0.01222996 L1.8424243,-0.012280758 L1.8909091,-0.01233161 L1.939394,-0.012382519 L1.9878788,-0.012433491 L2.0363636,-0.012484525 L2.0848484,-0.012535626 L2.1333334,-0.012586797 L2.1818182,-0.012638038 L2.230303,-0.012689355 L2.2787879,-0.012740748 L2.3272727,-0.012792221 L2.3757577,-0.012843777 L2.4242425,-0.012895417 L2.4727273,-0.012947145 L2.521212,-0.012998963 L2.569697,-0.013050873 L2.6181817,-0.013102878 L2.6666667,-0.013154981 L2.7151515,-0.013207182 L2.7636364,-0.013259486 L2.8121212,-0.013311896 L2.860606,-0.013364411 L2.909091,-0.013417034 L2.9575758,-0.013469771 L3.0060606,-0.013522619 L3.0545454,-0.013575585 L3.1030302,-0.013628667 L3.1515152,-0.01368187 L3.2,-0.013735196 L3.2484848,-0.013788644 L3.2969697,-0.01384222 L3.3454545,-0.013895924 L3.3939395,-0.013949758 L3.4424243,-0.014003725 L3.490909,-0.014057825 L3.539394,-0.014112063 L3.5878787,-0.014166437 L3.6363637,-0.014220952 L3.6848485,-0.014275609 L3.7333333,-0.014330408 L3.7818182,-0.014385352 L3.830303,-0.014440443 L3.878788,-0.014495684 L3.9272728,-0.014551073 L3.9757576,-0.014606615 L4.0242424,-0.01466231 L4.072727,-0.014718159 L4.121212,-0.014774164 L4.169697,-0.014830328 L4.2181816,-0.01488665 L4.266667,-0.014943132 L4.3151517,-0.014999777 L4.3636365,-0.015056584 L4.4121213,-0.015113556 L4.460606,-0.0151706925 L4.509091,-0.015227997 L4.5575757,-0.015285468 L4.6060605,-0.015343108 L4.6545453,-0.015400919 L4.70303,-0.0154589005 L4.7515154,-0.015517054 L4.8,-0.01557538" fill="none" stroke="darkolivegreen" stroke-linejoin="round" stroke-width="2"/>
</g>
</g>
<g>
<g>
<line stroke="black" stroke-width="1" x1="0" x2="0" y1="0" y2="10"/>
<line stroke="black" stroke-width="1" x1="96.96969696969697" x2="96.96969696969697" y1="0" y2="10"/>
<line stroke="black" stroke-width="1" x1="193.93939393939394" x2="193.93939393939394" y1="0" y2="10"/>
<line stroke="black" stroke-width="1" x1="290.90909090909093" x2="290.90909090909093" y1="0" y2="10"/>
<line stroke="black" stroke-width="1" x1="387.8787878787879" x2="387.8787878787879" y1="0" y2="10"/>
</g>
<line stroke="black" stroke-width="1" x1="0" x2="480" y1="0" y2="0"/>
<g>
<text font-size="12" text-anchor="middle" x="0" y="20">
0
</text>
<text font-size="12" text-anchor="middle" x="96.96969696969697" y="20">
20
</text>
<text font-size="12" text-anchor="middle" x="193.93939393939394" y="20">
40
</text>
<text font-size="12" text-anchor="middle" x="290.90909090909093" y="20">
60
</text>
<text font-size="12" text-anchor="middle" x="387.8787878787879" y="20">
80
</text>
</g>
<text font-size="12" text-anchor="middle" x="240" y="30">

</text>
</g>
<g>
<g>
<line stroke="black" stroke-width="1" x1="0" x2="-10" y1="-0" y2="-0"/>
<line stroke="black" stroke-width="1" x1="0" x2="-10" y1="-69.3806754412815" y2="-69.3806754412815"/>
<line stroke="black" stroke-width="1" x1="0" x2="-10" y1="-138.761350882563" y2="-138.761350882563"/>
<line stroke="black" stroke-width="1" x1="0" x2="-10" y1="-208.1420263238445" y2="-208.1420263238445"/>
<line stroke="black" stroke-width="1" x1="0" x2="-10" y1="-277.522701765126" y2="-277.522701765126"/>
</g>
<line stroke="black" stroke-width="1" x1="0" x2="0" y1="0" y2="-340"/>
<g>
<text dominant-baseline="middle" font-size="12" text-anchor="end" x="-15" y="-0">
0
</text>
<text dominant-baseline="middle" font-size="12" text-anchor="end" x="-15" y="-69.3806754412815">
2000
</text>
<text dominant-baseline="middle" font-size="12" text-anchor="end" x="-15" y="-138.761350882563">
4000
</text>
<text dominant-baseline="middle" font-size="12" text-anchor="end" x="-15" y="-208.1420263238445">
6000
</text>
<text dominant-baseline="middle" font-size="12" text-anchor="end" x="-15" y="-277.522701765126">
8000
</text>
</g>
<text font-size="12" text-anchor="middle" transform="rotate(-90 -48 -170)" x="-48" y="-182">

</text>
</g>
</g>
</svg>