<svg viewBox="0 0 600 400" xmlns="http://www.w3.org/2000/svg">
<g transform="translate(72, 364)">
<g>
<g>
<path d="M0,-123.03319 L0,-123.03319 L0.96192384,-135.31613 L1.9238477,-147.47635 L2.8857715,-159.39233 L3.8476954,-170.94504 L4.8096194,-182.01903 L5.771543,-192.50363 L6.733467,-202.29413 L7.6953907,-211.29266 L8.657314,-219.40935 L9.619239,-226.56306 L10.581162,-232.68236 L11.543086,-237.70605 L12.50501,-241.58398 L13.466934,-244.2774 L14.428858,-245.75938 L15.390781,-246.01512 L16.352705,-245.04207 L17.314629,-242.84995 L18.276552,-239.46065 L19.238478,-234.90805 L20.200401,-229.23764 L21.162325,-222.50606 L22.124249,-214.78058 L23.086172,-206.1384 L24.048096,-196.66585 L25.01002,-186.4576 L25.971945,-175.61562 L26.933868,-164.24826 L27.895792,-152.46909 L28.857716,-140.39581 L29.81964,-128.14905 L30.781563,-115.851166 L31.743486,-103.625046 L32.70541,-91.59285 L33.667336,-79.87479 L34.629257,-68.58796 L35.591183,-57.845123 L36.553104,-47.753624 L37.51503,-38.414295 L38.476955,-29.920454 L39.438877,-22.35696 L40.400803,-15.799393 L41.362724,-10.313269 L42.32465,-5.953405 L43.28657,-2.7633634 L44.248497,-0.77501863 L45.210423,-0.0082370285 L46.172344,-0.47068012 L47.13427,-2.1577272 L48.09619,-5.052522 L49.058117,-9.126141 L50.02004,-14.337881 L50.981964,-20.63567 L51.94389,-27.95658 L52.90581,-36.227463 L53.867737,-45.36568 L54.82966,-55.279926 L55.791584,-65.87114 L56.753506,-77.0335 L57.71543,-88.65547 L58.677353,-100.62094 L59.63928,-112.81033 L60.601204,-125.10188 L61.563126,-137.37276 L62.52505,-149.50035 L63.486973,-161.3635 L64.4489,-172.84366 L65.41082,-183.82613 L66.37274,-194.20117 L67.33467,-203.86514 L68.29659,-212.72145 L69.258514,-220.68164 L70.22044,-227.66615 L71.182365,-233.6052 L72.14429,-238.43945 L73.10621,-242.1206 L74.06814,-244.61188 L75.03006,-245.88837 L75.99198,-245.93733 L76.95391,-244.75829 L77.91583,-242.36299 L78.877754,-238.7754 L79.839676,-234.03136 L80.801605,-228.17825 L81.76353,-221.27457 L82.72545,-213.3893 L83.68738,-204.60121 L84.6493,-194.99812 L85.61122,-184.676 L86.57314,-173.73795 L87.53507,-162.29326 L88.496994,-150.45631 L89.458916,-138.34537 L90.420845,-126.08142 L91.38277,-113.78702 L92.34469,-101.585 L93.30661,-89.59729 L94.26854,-77.94365 L95.23046,-66.74054 L96.19238,-56.099884 L97.15431,-46.128002 L98.116234,-36.92453 L99.078156,-28.58143 L100.04008,-21.182062 L101.00201,-14.800355 L101.96393,-9.500074 L102.92585,-5.33418 L103.88778,-2.3442945 L104.8497,-0.5602929 L105.81162,-0 L106.773544,-0.6690141 L107.73547,-2.5606506 L108.697395,-5.6560087 L109.65932,-9.924161 L110.62124,-15.322461 L111.58317,-21.796972 L112.54509,-29.283 L113.50701,-37.70575 L114.46894,-46.981064 L115.43086,-57.016266 L116.392784,-67.71109 L117.354706,-78.958664 L118.316635,-90.64663 L119.27856,-102.65818 L120.24048,-114.873314 L121.20241,-127.16998 L122.16433,-139.42531 L123.12625,-151.51686 L124.08817,-163.3238 L125.0501,-174.7282 L126.012024,-185.61604 L126.973946,-195.8786 L127.935875,-205.4133 L128.8978,-214.1249 L129.85973,-221.92632 L130.82164,-228.73964 L131.78357,-234.49678 L132.74548,-239.14021 L133.70741,-242.62355 L134.66934,-244.91197 L135.63126,-245.98262 L136.59319,-245.8248 L137.55511,-244.44008 L138.51703,-241.84232 L139.47896,-238.05743 L140.44089,-233.12328 L141.4028,-227.08914 L142.36473,-220.0153 L143.32666,-211.97246 L144.28857,-203.04097 L145.2505,-193.31006 L146.21242,-182.87695 L147.17435,-171.84593 L148.13628,-160.32718 L149.09819,-148.43579 L150.06012,-136.2906 L151.02205,-124.01294 L151.98396,-111.72549 L152.94589,-99.55102 L153.90782,-87.61118 L154.86974,-76.02527 L155.83167,-64.909035 L156.7936,-54.373566 L157.75551,-44.52412 L158.71744,-35.45911 L159.67935,-27.269114 L160.64128,-20.035957 L161.60321,-13.831917 L162.56512,-8.718979 L163.52705,-4.7482314 L164.48898,-1.9593475 L165.4509,-0.38019356 L166.41283,-0.026547806 L167.37476,-0.90194374 L168.33667,-2.9976346 L169.2986,-6.292681 L170.26053,-10.754161 L171.22244,-16.337494 L172.18437,-22.986897 L173.14629,-30.63593 L174.10822,-39.208164 L175.07014,-48.61795 L176.03206,-58.77127 L176.99399,-69.56667 L177.95592,-80.89629 L178.91783,-92.646935 L179.87976,-104.70119 L180.84169,-116.93861 L181.8036,-129.23692 L182.76553,-141.47324 L183.72745,-153.52533 L184.68938,-165.27274 L185.6513,-176.5981 L186.61322,-187.38828 L187.57515,-197.53542 L188.53708,-206.93817 L189.499,-215.50258 L190.46092,-223.14305 L191.42285,-229.78326 L192.38477,-235.35686 L193.3467,-239.80815 L194.30862,-243.09268 L195.27054,-245.17761 L196.23247,-246.04211 L197.19438,-245.67754 L198.15631,-244.08755 L199.11824,-241.28804 L200.08015,-237.30695 L201.04208,-232.18408 L202.00401,-225.97061 L202.96593,-218.72862 L203.92786,-210.53049 L204.88979,-201.4581 L205.8517,-191.60211 L206.81363,-181.061 L207.77556,-169.94011 L208.73747,-158.35054 L209.6994,-146.40808 L210.66132,-134.23209 L211.62325,-121.944176 L212.58517,-109.66715 L213.54709,-97.52368 L214.50902,-85.635086 L215.47095,-74.12017 L216.43286,-63.093967 L217.39479,-52.666664 L218.35672,-42.942436 L219.31863,-34.01845 L220.28056,-25.98387 L221.24248,-18.918974 L222.2044,-12.894354 L223.16634,-7.970204 L224.12825,-4.1957254 L225.09018,-1.6086315 L226.05211,-0.2347716 L227.01402,-0.08787294 L227.97595,-1.1694033 L228.93788,-3.4685562 L229.8998,-6.9623594 L230.86172,-11.615904 L231.82365,-17.382694 L232.78557,-24.205109 L233.7475,-32.01498 L234.70941,-40.734276 L235.67134,-50.275875 L236.63327,-60.54444 L237.59518,-71.43737 L238.55711,-82.84583 L239.51904,-94.65584 L240.48096,-106.749374 L241.44289,-119.005615 L242.40482,-131.3021 L243.36673,-143.51596 L244.32866,-155.52516 L245.29059,-167.20972 L246.2525,-178.45288 L247.21443,-189.1423 L248.17635,-199.17119 L249.13828,-208.43932 L250.1002,-216.85411 L251.06212,-224.33147 L252.02405,-230.79669 L252.98598,-236.18518 L253.94789,-240.44308 L254.90982,-243.52786 L255.87175,-245.4087 L256.83368,-246.06682 L257.7956,-245.49562 L258.7575,-243.7008 L259.71945,-240.70033 L260.68137,-236.52415 L261.64328,-231.21402 L262.60522,-224.82298 L263.56714,-217.41489 L264.52905,-209.06377 L265.49097,-199.85306 L266.4529,-189.87479 L267.41483,-179.22865 L268.37674,-168.02104 L269.33868,-156.36392 L270.3006,-144.37378 L271.2625,-132.1704 L272.22446,-119.875725 L273.18637,-107.612595 L274.1483,-95.50355 L275.11023,-83.66957 L276.07214,-72.2289 L277.03406,-61.29585 L277.996,-50.979656 L278.95792,-41.383396 L279.91983,-32.60296 L280.88177,-24.726067 L281.8437,-17.831427 L282.8056,-11.98793 L283.76755,-7.25396 L284.72946,-3.6768181 L285.69138,-1.2922454 L286.65332,-0.12406808 L287.61523,-0.18395807 L288.57715,-1.4713169 L289.5391,-3.9732819 L290.501,-7.664854 L291.46292,-12.509149 L292.42484,-18.457764 L293.38678,-25.45126 L294.3487,-33.419765 L295.3106,-42.283657 L296.27255,-51.95437 L297.23447,-62.33528 L298.19638,-73.32266 L299.15833,-84.80674 L300.12024,-96.67276 L301.08215,-108.80216 L302.0441,-121.07376 L303.006,-133.36494 L303.96793,-145.55289 L304.92987,-157.51582 L305.89178,-169.13422 L306.8537,-180.29198 L307.81564,-190.87764 L308.77756,-200.78542 L309.73947,-209.91632 L310.70142,-218.17912 L311.66333,-225.49126 L312.62524,-231.77965 L313.5872,-236.9815 L314.5491,-241.04482 L315.51102,-243.92899 L316.47293,-245.60521 L317.43488,-246.05675 L318.3968,-245.27905 L319.3587,-243.27994 L320.32065,-240.07935 L321.28256,-235.70927 L322.24448,-230.21338 L323.20642,-223.64658 L324.16833,-216.07446 L325.13025,-207.57272 L326.0922,-198.22629 L327.0541,-188.12856 L328.01602,-177.38042 L328.97797,-166.08925 L329.93988,-154.36787 L330.9018,-142.33342 L331.86374,-130.10612 L332.82565,-117.80816 L333.78757,-105.5624 L334.7495,-93.4912 L335.71143,-81.71518 L336.67334,-70.352 L337.63528,-59.515182 L338.5972,-49.31302 L339.5591,-39.847443 L340.52106,-31.21303 L341.48297,-23.496056 L342.4449,-16.773623 L343.4068,-11.112902 L344.36874,-6.5704503 L345.33066,-3.191656 L346.29257,-1.0102788 L347.25452,-0.048114322 L348.21643,-0.314776 L349.17834,-1.8075995 L350.1403,-4.511669 L351.1022,-8.399966 L352.06412,-13.433641 L353.02606,-19.562399 L353.98798,-26.725002 L354.9499,-34.849884 L355.91183,-43.855865 L356.87375,-53.65296 L357.83566,-64.14328 L358.7976,-75.22201 L359.75952,-86.77845 L360.72144,-98.697136 L361.68338,-110.85898 L362.6453,-123.14246 L363.6072,-135.42487 L364.56915,-147.58344 L365.53107,-159.49672 L366.49298,-171.04567 L367.4549,-182.1149 L368.41684,-192.5938 L369.37875,-202.37767 L370.34067,-211.36876 L371.3026,-219.47723 L372.26453,-226.62207 L373.22644,-232.73187 L374.1884,-237.7456 L375.1503,-241.61317 L376.1122,-244.29593 L377.07416,-245.76706 L378.03607,-246.01189 L378.998,-245.02794 L379.95993,-242.82507 L380.92184,-239.42528 L381.88376,-234.86253 L382.8457,-229.18242 L383.80762,-222.44171 L384.76953,-214.70773 L385.73148,-206.05779 L386.6934,-196.57828 L387.6553,-186.36394 L388.61725,-175.5168 L389.57916,-164.14528 L390.54108,-152.36298 L391.50302,-140.28761 L392.46494,-128.03986 L393.42685,-115.74208 L394.38876,-103.51714 L395.3507,-91.48721 L396.31262,-79.77248 L397.27454,-68.48998 L398.23648,-57.752472 L399.1984,-47.66722 L400.1603,-38.335007 L401.12225,-29.849064 L402.08417,-22.294188 L403.04608,-15.745862 L404.00803,-10.269516 L404.96994,-5.9198675 L405.93185,-2.7403765 L406.8938,-0.7628115 L407.8557,-0.006931794 L408.81763,-0.4802898 L409.77957,-2.178156 L410.7415,-5.0835657 L411.7034,-9.167489 L412.66534,-14.389121 L413.62726,-20.696287 L414.58917,-28.025972 L415.55112,-36.304935 L416.51303,-45.450462 L417.47495,-55.371166 L418.43686,-65.967926 L419.3988,-77.13487 L420.36072,-88.76041 L421.32263,-100.72839 L422.28458,-112.919235 L423.2465,-125.211136 L424.2084,-137.48128 L425.17035,-149.60706 L426.13226,-161.46732 L427.09418,-172.94356 L428.05612,-183.92111 L429.01804,-194.29028 L429.97995,-203.9475 L430.9419,-212.79622 L431.9038,-220.74808 L432.86572,-227.72359 L433.82767,-233.65308 L434.78958,-238.47728 L435.7515,-242.14801 L436.71344,-244.62859 L437.67535,-245.89421 L438.63727,-245.93227 L439.5992,-244.74234 L440.56113,-242.33633 L441.52304,-238.7383 L442.48495,-233.98418 L443.4469,-228.12146 L444.4088,-221.20874 L445.37073,-213.3151 L446.33267,-204.51936 L447.2946,-194.90947 L448.2565,-184.58139 L449.21844,-173.63835 L450.18036,-162.18968 L451.14227,-150.34978 L452.10422,-138.23694 L453.06613,-125.972176 L454.02805,-113.678055 L454.99,-101.47741 L455.9519,-89.49214 L456.91382,-77.842 L457.87576,-66.643394 L458.83768,-56.00822 L459.7996,-46.042736 L460.76154,-36.846516 L461.72345,-28.511442 L462.68536,-21.1208 L463.6473,-14.748433 L464.60922,-9.458012 L465.57114,-5.302396 L466.53308,-2.323107 L467.495,-0.5499133 L468.4569,-0.0005321387 L469.41882,-0.68045264 L470.38077,-2.5828812 L471.34268,-5.6888094 L472.3046,-9.967204 L473.26654,-15.375317 L474.22845,-21.859112 L475.19037,-29.353804 L476.1523,-37.784508 L477.11423,-47.06699 L478.07614,-57.108505 L479.0381,-67.808716 L480,-79.06071" fill="none" stroke="burlywood" stroke-linejoin="round" stroke-width="2"/>
</g>
</g>
<g>
<g>
<path d="M0,-337.04257 L0,-337.04257 L0.96192384,-337.70346 L1.9238477,-338.26593 L2.8857715,-338.6485 L3.8476954,-339.0037 L4.8096194,-339.32474 L5.771543,-339.5981 L6.733467,-339.81046 L7.6953907,-339.94858 L8.657314,-340 L9.619239,-339.9529 L10.581162,-339.79633 L11.543086,-339.52017 L12.50501,-339.11536 L13.466934,-338.57364 L14.428858,-337.88766 L15.390781,-336.9529 L16.352705,-335.78183 L17.314629,-334.57758 L18.276552,-333.148 L19.238478,-331.4992 L20.200401,-329.64563 L21.162325,-327.59415 L22.124249,-325.35327 L23.086172,-322.93323 L24.048096,-320.31616 L25.01002,-317.47302 L25.971945,-314.38904 L26.933868,-312.1245 L27.895792,-309.6785 L28.857716,-306.99524 L29.81964,-304.26907 L30.781563,-301.52386 L31.743486,-298.83786 L32.70541,-295.8117 L33.667336,-292.80545 L34.629257,-289.93723 L35.591183,-287.53192 L36.553104,-285.1943 L37.51503,-282.93286 L38.476955,-280.7552 L39.438877,-278.5113 L40.400803,-276.31848 L41.362724,-274.21338 L42.32465,-271.88385 L43.28657,-269.63092 L44.248497,-267.48596 L45.210423,-265.45215 L46.172344,-263.53177 L47.13427,-261.72617 L48.09619,-260.03592 L49.058117,-258.46075 L50.02004,-256.99982 L50.981964,-255.65154 L51.94389,-254.41386 L52.90581,-253.28427 L53.867737,-252.25978 L54.82966,-251.3371 L55.791584,-250.72163 L56.753506,-250.52327 L57.71543,-250.3109 L58.677353,-250.14162 L59.63928,-250.01448 L60.601204,-249.92844 L61.563126,-249.88235 L62.52505,-249.87502 L63.486973,-249.90518 L64.4489,-249.97148 L65.41082,-250.07254 L66.37274,-250.20695 L67.33467,-250.37323 L68.29659,-250.56992 L69.258514,-250.79549 L70.22044,-251.04845 L71.182365,-251.32726 L72.14429,-251.63043 L73.10621,-251.95645 L74.06814,-252.30382 L75.03006,-252.67107 L75.99198,-253.05673 L76.95391,-253.45941 L77.91583,-253.87769 L78.877754,-254.3102 L79.839676,-254.75563 L80.801605,-255.21269 L81.76353,-255.68011 L82.72545,-256.1567 L83.68738,-256.64133 L84.6493,-257.13278 L85.61122,-257.63007 L86.57314,-258.13208 L87.53507,-258.63788 L88.496994,-259.1465 L89.458916,-259.65704 L90.420845,-260.16864 L91.38277,-260.68045 L92.34469,-261.19177 L93.30661,-261.70178 L94.26854,-262.20987 L95.23046,-262.71533 L96.19238,-263.2176 L97.15431,-263.71603 L98.116234,-264.2298 L99.078156,-264.81226 L100.04008,-265.38672 L101.00201,-265.9528 L101.96393,-266.5101 L102.92585,-267.05838 L103.88778,-267.59732 L104.8497,-268.1267 L105.81162,-268.56796 L106.773544,-268.9713 L107.73547,-269.3664 L108.697395,-269.75302 L109.65932,-270.13104 L110.62124,-270.5004 L111.58317,-270.86093 L112.54509,-271.21255 L113.50701,-271.55527 L114.46894,-271.88892 L115.43086,-272.21353 L116.392784,-272.52905 L117.354706,-272.83545 L118.316635,-273.13275 L119.27856,-273.42093 L120.24048,-273.7 L121.20241,-273.97003 L122.16433,-274.231 L123.12625,-274.48294 L124.08817,-274.72592 L125.0501,-274.96646 L126.012024,-275.20047 L126.973946,-275.4276 L127.935875,-275.6479 L128.8978,-275.86133 L129.85973,-276.0822 L130.82164,-276.30225 L131.78357,-276.5152 L132.74548,-276.7211 L133.70741,-276.92004 L134.66934,-277.11206 L135.63126,-277.2973 L136.59319,-277.47577 L137.55511,-277.64755 L138.51703,-277.8128 L139.47896,-277.97153 L140.44089,-278.12384 L141.4028,-278.26984 L142.36473,-278.4096 L143.32666,-278.54324 L144.28857,-278.67084 L145.2505,-278.79245 L146.21242,-278.9082 L147.17435,-279.0182 L148.13628,-279.12247 L149.09819,-279.2212 L150.06012,-279.31442 L151.02205,-279.40225 L151.98396,-279.48477 L152.94589,-279.5621 L153.90782,-279.63428 L154.86974,-279.70148 L155.83167,-279.76373 L156.7936,-279.82114 L157.75551,-279.8738 L158.71744,-279.9218 L159.67935,-279.96527 L160.64128,-280.00424 L161.60321,-280.03885 L162.56512,-280.06915 L163.52705,-280.09525 L164.48898,-280.11722 L165.4509,-280.13516 L166.41283,-280.14917 L167.37476,-280.1593 L168.33667,-280.16565 L169.2986,-280.16827 L170.26053,-280.16733 L171.22244,-280.1628 L172.18437,-280.15485 L173.14629,-280.14346 L174.10822,-280.1288 L175.07014,-280.11093 L176.03206,-280.08987 L176.99399,-280.06577 L177.95592,-280.0386 L178.91783,-280.00854 L179.87976,-279.9756 L180.84169,-279.93985 L181.8036,-279.90137 L182.76553,-279.8602 L183.72745,-279.81647 L184.68938,-279.77017 L185.6513,-279.7214 L186.61322,-279.67026 L187.57515,-279.61673 L188.53708,-279.5609 L189.499,-279.50287 L190.46092,-279.44266 L191.42285,-279.3803 L192.38477,-279.31592 L193.3467,-279.2495 L194.30862,-279.18115 L195.27054,-279.1109 L196.23247,-279.0388 L197.19438,-278.96487 L198.15631,-278.88922 L199.11824,-278.81186 L200.08015,-278.73285 L201.04208,-278.65222 L202.00401,-278.57004 L202.96593,-278.48633 L203.92786,-278.40115 L204.88979,-278.31454 L205.8517,-278.22653 L206.81363,-278.1372 L207.77556,-278.04654 L208.73747,-277.95462 L209.6994,-277.86148 L210.66132,-277.76712 L211.62325,-277.67163 L212.58517,-277.575 L213.54709,-277.4773 L214.50902,-277.37854 L215.47095,-277.27878 L216.43286,-277.178 L217.39479,-277.0763 L218.35672,-276.97366 L219.31863,-276.87015 L220.28056,-276.76578 L221.24248,-276.66058 L222.2044,-276.55457 L223.16634,-276.44778 L224.12825,-276.34027 L225.09018,-276.23203 L226.05211,-276.12308 L227.01402,-276.0135 L227.97595,-275.90323 L228.93788,-275.7924 L229.8998,-275.6809 L230.86172,-275.56888 L231.82365,-275.4563 L232.78557,-275.3432 L233.7475,-275.2296 L234.70941,-275.1155 L235.67134,-275.00095 L236.63327,-274.88596 L237.59518,-274.77054 L238.55711,-274.65472 L239.51904,-274.5385 L240.48096,-274.42194 L241.44289,-274.305 L242.40482,-274.18774 L243.36673,-274.07016 L244.32866,-273.9523 L245.29059,-273.83414 L246.2525,-273.7157 L247.21443,-273.59702 L248.17635,-273.4781 L249.13828,-273.35895 L250.1002,-273.2396 L251.06212,-273.12006 L252.02405,-273.0003 L252.98598,-272.8804 L253.94789,-272.76035 L254.90982,-272.64014 L255.87175,-272.5198 L256.83368,-272.39932 L257.7956,-272.27875 L258.7575,-272.15808 L259.71945,-272.03732 L260.68137,-271.91647 L261.64328,-271.79556 L262.60522,-271.6746 L263.56714,-271.55356 L264.52905,-271.4325 L265.49097,-271.3114 L266.4529,-271.19028 L267.41483,-271.06915 L268.37674,-270.94803 L269.33868,-270.82687 L270.3006,-270.70575 L271.2625,-270.58466 L272.22446,-270.46356 L273.18637,-270.34253 L274.1483,-270.2215 L275.11023,-270.10052 L276.07214,-269.9796 L277.03406,-269.85876 L277.996,-269.73798 L278.95792,-269.61725 L279.91983,-269.49658 L280.88177,-269.376 L281.8437,-269.25552 L282.8056,-269.13513 L283.76755,-269.01483 L284.72946,-268.89465 L285.69138,-268.77457 L286.65332,-268.65457 L287.61523,-268.5347 L288.57715,-268.41498 L289.5391,-268.29535 L290.501,-268.17584 L291.46292,-268.0565 L292.42484,-267.93726 L293.38678,-267.81815 L294.3487,-267.6992 L295.3106,-267.58038 L296.27255,-267.46173 L297.23447,-267.3432 L298.19638,-267.22485 L299.15833,-267.10663 L300.12024,-266.9886 L301.08215,-266.8707 L302.0441,-266.753 L303.006,-266.63544 L303.96793,-266.51804 L304.92987,-266.40082 L305.89178,-266.28378 L306.8537,-266.1669 L307.81564,-266.05023 L308.77756,-265.9337 L309.73947,-265.81735 L310.70142,-265.7012 L311.66333,-265.58524 L312.62524,-265.46945 L313.5872,-265.35385 L314.5491,-265.23843 L315.51102,-265.1232 L316.47293,-265.00815 L317.43488,-264.8933 L318.3968,-264.77863 L319.3587,-264.66418 L320.32065,-264.5499 L321.28256,-264.43582 L322.24448,-264.32193 L323.20642,-264.20825 L324.16833,-264.09476 L325.13025,-263.98145 L326.0922,-263.86835 L327.0541,-263.75546 L328.01602,-263.64276 L328.97797,-263.53024 L329.93988,-263.41794 L330.9018,-263.30582 L331.86374,-263.1939 L332.82565,-263.0822 L333.78757,-262.9707 L334.7495,-262.85938 L335.71143,-262.7483 L336.67334,-262.63736 L337.63528,-262.52667 L338.5972,-262.41614 L339.5591,-262.30585 L340.52106,-262.19574 L341.48297,-262.08582 L342.4449,-261.9761 L343.4068,-261.8666 L344.36874,-261.7573 L345.33066,-261.64816 L346.29257,-261.53925 L347.25452,-261.43054 L348.21643,-261.32202 L349.17834,-261.21368 L350.1403,-261.10556 L351.1022,-260.99765 L352.06412,-260.88992 L353.02606,-260.78238 L353.98798,-260.67505 L354.9499,-260.5679 L355.91183,-260.46094 L356.87375,-260.3542 L357.83566,-260.24762 L358.7976,-260.14127 L359.75952,-260.0351 L360.72144,-259.9291 L361.68338,-259.8233 L362.6453,-259.71768 L363.6072,-259.61227 L364.56915,-259.50705 L365.53107,-259.402 L366.49298,-259.29718 L367.4549,-259.1925 L368.41684,-259.08804 L369.37875,-258.98373 L370.34067,-258.87964 L371.3026,-258.77573 L372.26453,-258.67197 L373.22644,-258.56842 L374.1884,-258.46506 L375.1503,-258.36185 L376.1122,-258.25885 L377.07416,-258.156 L378.03607,-258.05338 L378.998,-257.9509 L379.95993,-257.8486 L380.92184,-257.7465 L381.88376,-257.64453 L382.8457,-257.54276 L383.80762,-257.44116 L384.76953,-257.33975 L385.73148,-257.2385 L386.6934,-257.13742 L387.6553,-257.03653 L388.61725,-256.9358 L389.57916,-256.8352 L390.54108,-256.7348 L391.50302,-256.63458 L392.46494,-256.53452 L393.42685,-256.43463 L394.38876,-256.3349 L395.3507,-256.23532 L396.31262,-256.13593 L397.27454,-256.03668 L398.23648,-255.93759 L399.1984,-255.83867 L400.1603,-255.7399 L401.12225,-255.6413 L402.08417,-255.54286 L403.04608,-255.44458 L404.00803,-255.34645 L404.96994,-255.24847 L405.93185,-255.15065 L406.8938,-255.053 L407.8557,-254.95547 L408.81763,-254.85812 L409.77957,-254.76091 L410.7415,-254.66386 L411.7034,-254.56696 L412.66534,-254.4702 L413.62726,-254.3736 L414.58917,-254.27713 L415.55112,-254.18082 L416.51303,-254.08466 L417.47495,-253.98863 L418.43686,-253.89275 L419.3988,-253.79701 L420.36072,-253.70143 L421.32263,-253.60597 L422.28458,-253.51067 L423.2465,-253.41551 L424.2084,-253.32048 L425.17035,-253.22559 L426.13226,-253.13084 L427.09418,-253.03624 L428.05612,-252.94176 L429.01804,-252.84743 L429.97995,-252.75322 L430.9419,-252.65915 L431.9038,-252.56522 L432.86572,-252.47142 L433.82767,-252.37775 L434.78958,-252.28421 L435.7515,-252.1908 L436.71344,-252.09753 L437.67535,-252.00438 L438.63727,-251.91136 L439.5992,-251.81848 L440.56113,-251.72572 L441.52304,-251.63309 L442.48495,-251.54057 L443.4469,-251.4482 L444.4088,-251.35594 L445.37073,-251.26381 L446.33267,-251.1718 L447.2946,-251.07991 L448.2565,-250.98814 L449.21844,-250.8965 L450.18036,-250.80498 L451.14227,-250.71358 L452.10422,-250.6223 L453.06613,-250.53114 L454.02805,-250.4401 L454.99,-250.34917 L455.9519,-250.25836 L456.91382,-250.16768 L457.87576,-250.0771 L458.83768,-249.98663 L459.7996,-249.8963 L460.76154,-249.80606 L461.72345,-249.71596 L462.68536,-249.62595 L463.6473,-249.53607 L464.60922,-249.44629 L465.57114,-249.35663 L466.53308,-249.26707 L467.495,-249.17763 L468.4569,-249.0883 L469.41882,-248.99908 L470.38077,-248.90997 L471.34268,-248.82097 L472.3046,-248.73207 L473.26654,-248.64328 L474.22845,-248.5546 L475.19037,-248.46603 L476.1523,-248.37756 L477.11423,-248.2892 L478.07614,-248.20094 L479.0381,-248.1128 L480,-248.02475" fill="none" stroke="darkolivegreen" stroke-linejoin="round" stroke-width="2"/>
</g>
</g>
<g>
<g>
<line stroke="black" stroke-width="1" x1="0" x2="0" y1="0" y2="10"/>
<line stroke="black" stroke-width="1" x1="96.19238476953906" x2="96.19238476953906" y1="0" y2="10"/>
<line stroke="black" stroke-width="1" x1="192.38476953907812" x2="192.38476953907812" y1="0" y2="10"/>
<line stroke="black" stroke-width="1" x1="288.5771543086172" x2="288.5771543086172" y1="0" y2="10"/>
<line stroke="black" stroke-width="1" x1="384.76953907815624" x2="384.76953907815624" y1="0" y2="10"/>
</g>
<line stroke="black" stroke-width="1" x1="0" x2="480" y1="0" y2="0"/>
<g>
<text font-size="12" text-anchor="middle" x="0" y="20">
0
</text>
<text font-size="12" text-anchor="middle" x="96.19238476953906" y="20">
10
</text>
<text font-size="12" text-anchor="middle" x="192.38476953907812" y="20">
20
</text>
<text font-size="12" text-anchor="middle" x="288.5771543086172" y="20">
30
</text>
<text font-size="12" text-anchor="middle" x="384.76953907815624" y="20">
40
</text>
</g>
<text font-size="12" text-anchor="middle" x="240" y="30">

</text>
</g>
<g>
<g>
<line stroke="black" stroke-width="1" x1="0" x2="-10" y1="-61.515993079223854" y2="-61.515993079223854"/>
<line stroke="black" stroke-width="1" x1="0" x2="-10" y1="-123.03319108956687" y2="-123.03319108956687"/>
<line stroke="black" stroke-width="1" x1="0" x2="-10" y1="-184.5503890999099" y2="-184.5503890999099"/>
<line stroke="black" stroke-width="1" x1="0" x2="-10" y1="-246.0675871102529" y2="-246.0675871102529"/>
<line stroke="black" stroke-width="1" x1="0" x2="-10" y1="-307.5847851205959" y2="-307.5847851205959"/>
</g>
<line stroke="black" stroke-width="1" x1="0" x2="0" y1="0" y2="-340"/>
<g>
<text dominant-baseline="middle" font-size="12" text-anchor="end" x="-15" y="-61.515993079223854">
-0.5
</text>
<text dominant-baseline="middle" font-size="12" text-anchor="end" x="-15" y="-123.03319108956687">
0
</text>
<text dominant-baseline="middle" font-size="12" text-anchor="end" x="-15" y="-184.5503890999099">
0.5
</text>
<text dominant-baseline="middle" font-size="12" text-anchor="end" x="-15" y="-246.0675871102529">
1
</text>
<text dominant-baseline="middle" font-size="12" text-anchor="end" x="-15" y="-307.5847851205959">
1.5
</text>
</g>
<text font-size="12" text-anchor="middle" transform="rotate(-90 -48 -170)" x="-48" y="-182">

</text>
</g>
</g>
</svg>