<svg viewBox="0 0 600 400" xmlns="http://www.w3.org/2000/svg">
<g transform="translate(72, 364)">
<g>
<g>
<path d="M0,NaN L0,NaN L2.4120603,NaN L4.8241205,NaN L7.236181,NaN L9.648241,NaN L12.060302,NaN L14.472362,NaN L16.884422,NaN L19.296482,NaN L21.708542,NaN L24.120604,NaN L26.532663,NaN L28.944723,NaN L31.356785,NaN L33.768845,NaN L36.180904,NaN L38.592964,NaN L41.005024,NaN L43.417084,NaN L45.829147,NaN L48.241207,NaN L50.653267,NaN L53.065327,NaN L55.477386,NaN L57.889446,NaN L60.301506,NaN L62.71357,NaN L65.125626,NaN L67.53769,NaN L69.949745,NaN L72.36181,NaN L74.77387,NaN L77.18593,NaN L79.59799,NaN L82.01005,NaN L84.42211,NaN L86.83417,NaN L89.24623,NaN L91.658295,NaN L94.07035,NaN L96.482414,NaN L98.89447,NaN L101.30653,NaN L103.71859,NaN L106.13065,NaN L108.54272,NaN L110.95477,NaN L113.36684,NaN L115.77889,NaN L118.190956,NaN L120.60301,NaN L123.015076,NaN L125.42714,NaN L127.839195,NaN L130.25125,NaN L132.66331,NaN L135.07538,NaN L137.48744,NaN L139.89949,NaN L142.31155,NaN L144.72362,NaN L147.13568,NaN L149.54774,NaN L151.9598,NaN L154.37186,NaN L156.78392,NaN L159.19598,NaN L161.60805,NaN L164.0201,NaN L166.43216,NaN L168.84422,NaN L171.25629,NaN L173.66833,NaN L176.0804,NaN L178.49246,NaN L180.90453,NaN L183.31659,NaN L185.72864,NaN L188.1407,NaN L190.55276,NaN L192.96483,NaN L195.37688,NaN L197.78894,NaN L200.201,NaN L202.61307,NaN L205.02513,NaN L207.43718,NaN L209.84924,NaN L212.2613,NaN L214.67337,NaN L217.08543,NaN L219.49748,NaN L221.90955,NaN L224.32161,NaN L226.73367,NaN L229.14572,NaN L231.55779,NaN L233.96985,NaN L236.38191,NaN L238.79398,NaN L241.20602,NaN L243.61809,NaN L246.03015,NaN L248.44221,NaN L250.85428,NaN L253.26633,NaN L255.67839,NaN L258.09045,NaN L260.5025,NaN L262.91458,NaN L265.32663,NaN L267.7387,NaN L270.15076,NaN L272.5628,NaN L274.97488,NaN L277.38693,NaN L279.79898,NaN L282.21106,NaN L284.6231,NaN L287.0352,NaN L289.44724,NaN L291.85928,NaN L294.27136,NaN L296.6834,NaN L299.0955,NaN L301.50754,NaN L303.9196,NaN L306.33167,NaN L308.7437,NaN L311.1558,NaN L313.56784,NaN L315.9799,NaN L318.39197,NaN L320.80402,NaN L323.2161,NaN L325.62814,NaN L328.0402,NaN L330.45227,NaN L332.86432,NaN L335.27637,NaN L337.68845,NaN L340.1005,NaN L342.51257,NaN L344.92462,NaN L347.33667,NaN L349.74875,NaN L352.1608,NaN L354.57288,NaN L356.98492,NaN L359.39697,NaN L361.80905,NaN L364.2211,NaN L366.63318,NaN L369.04523,NaN L371.45728,NaN L373.86935,NaN L376.2814,NaN L378.69348,NaN L381.10553,NaN L383.51758,NaN L385.92966,NaN L388.3417,NaN L390.75375,NaN L393.16583,NaN L395.57788,NaN L397.98996,NaN L400.402,NaN L402.81406,NaN L405.22614,NaN L407.63818,NaN L410.05026,NaN L412.4623,NaN L414.87436,NaN L417.28644,NaN L419.6985,NaN L422.11057,NaN L424.5226,NaN L426.93466,NaN L429.34674,NaN L431.7588,NaN L434.17087,NaN L436.58292,NaN L438.99496,NaN L441.40704,NaN L443.8191,NaN L446.23117,NaN L448.64322,NaN L451.05527,NaN L453.46735,NaN L455.8794,NaN L458.29144,NaN L460.70352,NaN L463.11557,NaN L465.52765,NaN L467.9397,NaN L470.35175,NaN L472.76382,NaN L475.17587,NaN L477.58795,NaN L480,NaN" fill="none" stroke="burlywood" stroke-linejoin="round" stroke-width="2"/>
</g>
</g>
<g>
<g>
<line stroke="black" stroke-width="1" x1="45.82914572864323" x2="45.82914572864323" y1="0" y2="10"/>
<line stroke="black" stroke-width="1" x1="142.31155778894473" x2="142.31155778894473" y1="0" y2="10"/>
<line stroke="black" stroke-width="1" x1="238.79396984924625" x2="238.79396984924625" y1="0" y2="10"/>
<line stroke="black" stroke-width="1" x1="335.27638190954775" x2="335.27638190954775" y1="0" y2="10"/>
<line stroke="black" stroke-width="1" x1="431.75879396984925" x2="431.75879396984925" y1="0" y2="10"/>
</g>
<line stroke="black" stroke-width="1" x1="0" x2="480" y1="0" y2="0"/>
<g>
<text font-size="12" text-anchor="middle" x="45.82914572864323" y="20">
-8
</text>
<text font-size="12" text-anchor="middle" x="142.31155778894473" y="20">
-4
</text>
<text font-size="12" text-anchor="middle" x="238.79396984924625" y="20">
0
</text>
<text font-size="12" text-anchor="middle" x="335.27638190954775" y="20">
4
</text>
<text font-size="12" text-anchor="middle" x="431.75879396984925" y="20">
8
</text>
</g>
<text font-size="12" text-anchor="middle" x="240" y="30">

</text>
</g>
<g>
<g>
<line stroke="black" stroke-width="1" x1="0" x2="-10" y1="-0.30881017257039056" y2="-0.30881017257039056"/>
<line stroke="black" stroke-width="1" x1="0" x2="-10" y1="-62.070844686648506" y2="-62.070844686648506"/>
<line stroke="black" stroke-width="1" x1="0" x2="-10" y1="-123.83287920072662" y2="-123.83287920072662"/>
<line stroke="black" stroke-width="1" x1="0" x2="-10" y1="-185.59491371480473" y2="-185.59491371480473"/>
<line stroke="black" stroke-width="1" x1="0" x2="-10" y1="-247.35694822888286" y2="-247.35694822888286"/>
<line stroke="black" stroke-width="1" x1="0" x2="-10" y1="-309.11898274296095" y2="-309.11898274296095"/>
</g>
<line stroke="black" stroke-width="1" x1="0" x2="0" y1="0" y2="-340"/>
<g>
<text dominant-baseline="middle" font-size="12" text-anchor="end" x="-15" y="-0.30881017257039056">
0
</text>
<text dominant-baseline="middle" font-size="12" text-anchor="end" x="-15" y="-62.070844686648506">
0.2
</text>
<text dominant-baseline="middle" font-size="12" text-anchor="end" x="-15" y="-123.83287920072662">
0.4
</text>
<text dominant-baseline="middle" font-size="12" text-anchor="end" x="-15" y="-185.59491371480473">
0.6
</text>
<text dominant-baseline="middle" font-size="12" text-anchor="end" x="-15" y="-247.35694822888286">
0.8
</text>
<text dominant-baseline="middle" font-size="12" text-anchor="end" x="-15" y="-309.11898274296095">
1
</text>
</g>
<text font-size="12" text-anchor="middle" transform="rotate(-90 -36 -170)" x="-36" y="-182">

</text>
</g>
</g>
</svg>